<svg xmlns="http://www.w3.org/2000/svg" width="64" height="64" viewBox="0 0 64 64"><circle fill="#F5F5F5" cx="32" cy="32" r="30"/><g fill="#699635"><path d="M12.476 36.952s-.162 1.374.404 2.02c.566.647 1.938 1.372 2.422 1.452.484.082-.564-1.774-.564-1.774s-1.535-1.939-2.262-1.698zm.242 3.472s.161 1.293 1.049 1.455c.889.161 1.696.081 1.696.081s0-1.454-2.745-1.536zm2.907-2.663s.888.322.888 1.131c0 .806-.08 1.614-.08 1.614s-.647-.809-.647-1.211c0-.403-.161-1.534-.161-1.534zm-.329 4.86s-.114.799.799.799c.914 0 .115-1.027-.799-.799zm-.057 1.256s.971-.285 2.113-.057c1.142.229 1.712 1.084 1.712 1.084s-1.198.344-2.569 0c-1.369-.341-1.256-1.027-1.256-1.027zm.629-2.855s1.37-.399 2.683 2.569c0 .001-2.513-.626-2.683-2.569zm1.426-.627s1.542-.857 2.799 3.139c0-.001-1.77-.685-2.799-3.139zm2.057 3.71s1.542-.572 3.541 1.77c-3.256-.113-3.541-1.77-3.541-1.77zm1.031-1.087s-.076.9.528.9.076-1.157-.528-.9zm-1.111 2.337s-.059.787.413.787.057-1.01-.413-.787zm4.708 2.43s-.075.9.529.9c.604.001.075-1.158-.529-.9zm1.429-2.683s-.076.9.528.9.075-1.156-.528-.9zm-3.773-1.569s2.17-.568 3.083 2.172c-2.626-.4-3.083-2.172-3.083-2.172zm-1.942 3.029s2.456-.628 3.598.229c1.142.855-2.17 1.197-3.598-.229zm4.284.057s1.655-.8 3.483.97c-3.427.456-3.483-.97-3.483-.97zm2.797-1.086s1.656-.514 3.255 2.512c-3.598-.514-3.255-2.512-3.255-2.512zm2.854 3.312s-1.827 1.257-4.111-.058c.001 0 .743-1.541 4.111.058zm21.895-11.919s.162 1.371-.402 2.018c-.564.646-1.939 1.373-2.424 1.453-.484.081.566-1.777.566-1.777s1.534-1.938 2.26-1.694zm-.24 3.47s-.162 1.292-1.051 1.453c-.889.162-1.695.08-1.695.08s0-1.451 2.746-1.533zm-2.908-2.664s-.889.322-.889 1.129c0 .809.08 1.616.08 1.616s.646-.808.646-1.212.163-1.533.163-1.533zm.328 4.86s.115.799-.799.799-.113-1.028.799-.799zm.057 1.258s-.969-.286-2.113-.059c-1.141.229-1.711 1.086-1.711 1.086s1.197.342 2.57 0c1.369-.343 1.254-1.027 1.254-1.027zm-.627-2.856s-1.369-.4-2.684 2.569c0 0 2.512-.628 2.684-2.569zm-1.428-.628s-1.543-.857-2.797 3.14c0 0 1.77-.686 2.797-3.14zm-2.055 3.711s-1.541-.571-3.541 1.77c3.254-.113 3.541-1.77 3.541-1.77zm-1.031-1.089s.074.9-.529.9-.076-1.156.529-.9zm1.111 2.34s.059.786-.412.786c-.472 0-.058-1.012.412-.786zm-4.709 2.428s.074.901-.529.901c-.605 0-.076-1.158.529-.901zm-1.427-2.683s.076.899-.529.899c-.604.001-.075-1.156.529-.899zm3.771-1.567s-2.17-.571-3.084 2.17c2.627-.401 3.084-2.17 3.084-2.17zm1.942 3.027s-2.455-.629-3.598.229c-1.141.855 2.17 1.198 3.598-.229zm-4.284.056s-1.656-.8-3.482.972c3.426.457 3.482-.972 3.482-.972zm-2.796-1.085s-1.656-.514-3.256 2.514c3.597-.514 3.256-2.514 3.256-2.514zm-2.856 3.312s1.826 1.257 4.111-.058c0 .001-.742-1.541-4.111.058zm-2.716.734s-1.251 1.697-1.251 1.536c0-.164-.889-.889-.889-.889l1.534-1.13-.605-.284.323-.362 1.131.483"/><path d="M31.998 49.545s1.252 1.695 1.252 1.535c0-.162.889-.889.889-.889l-1.535-1.131.605-.283-.323-.362-1.13.483m-.181.733h.525"/></g><path fill="#FF8736" d="M18.038 29.521s.436 1.144.926 1.144 1.798.109 1.798.109.653-.109.871-.708c.219-.599.816-3.104 3.813-1.58 2.996 1.524 3.159-2.615 3.159-2.615l-.491-.708.109-1.361s1.634 1.144 2.668 1.089c1.036-.054 1.798.328 2.126.328.326 0 1.359.327 1.359.327l2.67.108s.436-.38.871-.326c.438.054.438-.272 1.252-.272.818 0 1.635-1.036 1.635-1.036s.219-.217 1.416 0c0 0 .818-.653 2.016-1.035 1.199-.38 1.035-.871 1.035-.871s.871-.164 1.252-.109c.381.054.6-.654.6-.654l.926-.108.381-.544.928-.165s1.09-.762 1.252-1.252c.164-.491 1.416-.109 1.416-.109s.545-.491.6-.763c.055-.271.545-.055.545-.055l-.055.872-.6.328v.544h-.926l-.055.545-.762.055-.109.653-.164.271-.217.109h-.545l-.219.326-.545.381-.381.49-.762-.054-.49.654-.328-.055-.49.818-.381.49-.217.327-.381.109-.109.435-.654.165-.871.217-.326.381s-.928 1.853.055 2.506c.979.653 1.033 1.361 1.033 1.361l.492.328.381.653.162.762s-.162.108-.381.055c-.219-.055-.6-.11-.6-.11l-.436-.38-.816-.055-.436.49s-.219.327-.219.545-.109.163-.381 0-.709-.437-.709-.437l-.6-.163-.053-.272-.383.218s-.107.328-.326.217c-.217-.108-.436-.108-.436-.108h-.381s-.871.654-.762 2.778l-.982.163-.49.436-.271.273h-.709l-.381.326-.707.272-.328.436-.871.054-.381.272-.164.381-.599-.381-.816-.218-.708.163s-.218.055-.436.219c-.217.164-.817.271-.817.271s-.381.109-.381.328c0 .218-.109.599-.109.599v.817s-.109.544-.544.544c-.435 0-.326 0-.544-.054-.218-.055-.164-.545-.164-.545v-.6l-.872-.816-.544-.219-.599.055-.545.326-.49.327s.109.382-.272.109-.654-.381-.654-.381l-.49-.272-.654-.164-.489-.599-1.252-.054-1.09-1.254-.327-.326-.055-.981-.708-.108v-.544l-.273-.546.109-.98-.653-.271-.272-.927-.218-1.414z"/></svg>