<svg xmlns="http://www.w3.org/2000/svg" width="64" height="64" viewBox="0 0 64 64"><circle fill="#2A5F9E" cx="32" cy="32" r="30"/><path d="M32.002 11.801l.717 2.205h2.318l-1.875 1.363.715 2.205-1.875-1.363-1.877 1.363.717-2.205-1.875-1.363h2.318zM32 45.778l.717 2.206h2.32l-1.877 1.364.717 2.205L32 50.189l-1.875 1.364.717-2.205-1.875-1.364h2.318zm8.42-2.746l.717 2.207h2.319l-1.876 1.363.717 2.205-1.877-1.363-1.875 1.363.717-2.205-1.876-1.363h2.318zm5.801-5.799l.717 2.206h2.318l-1.877 1.364.717 2.205-1.875-1.363-1.877 1.363.717-2.205-1.875-1.364h2.318zm2.744-8.444l.717 2.206H52l-1.875 1.363.716 2.205-1.876-1.363-1.876 1.363.716-2.205-1.875-1.363h2.318zm-2.744-8.445l.717 2.207h2.318l-1.877 1.363.717 2.205-1.875-1.363-1.877 1.363.717-2.205-1.875-1.363h2.318zm-5.801-5.798l.717 2.206h2.319l-1.876 1.363.717 2.205-1.877-1.363-1.875 1.363.716-2.205-1.876-1.363h2.319zM23.58 43.032l-.717 2.207h-2.318l1.876 1.363-.717 2.205 1.876-1.363 1.877 1.363-.717-2.205 1.875-1.363h-2.318zm-5.799-5.799l-.717 2.206h-2.318l1.876 1.364-.717 2.205 1.876-1.363 1.875 1.363-.716-2.205 1.876-1.364h-2.318zm-2.745-8.444l-.716 2.206H12l1.876 1.363-.716 2.205 1.876-1.363 1.876 1.363-.716-2.205 1.875-1.363h-2.319zm2.745-8.445l-.717 2.207h-2.318l1.876 1.363-.717 2.205 1.876-1.363 1.875 1.363-.716-2.205 1.876-1.363h-2.318zm5.799-5.798l-.716 2.206h-2.319l1.876 1.363-.716 2.205 1.875-1.363 1.877 1.363-.717-2.205 1.875-1.363h-2.318z" fill="#FFCE31"/></svg>