<svg xmlns="http://www.w3.org/2000/svg" width="64" height="64" viewBox="0 0 64 64"><path fill="#FFF" d="M3.16 26.591v.983h.579v.983h.58v-.983h.579v-.983h.58v-.984h.58v-.983h.579v-.984h.58v-.983h-.58v-.983h-.578v-.984h-1.74v.984h1.159v.983h-.58v.983h-.579v.983h-.58v-.983h-.544a29.902 29.902 0 0 0-.615 2.513v.438h.58zm6.956-15.075l-.298.32h.298v-.32z"/><path fill="#FFF" d="M14.754 7.902h-.58v.983h-.579v.983h-.58v.983h-.579v.983h-.58v-.983h-.58v-.509c-.194.187-.39.373-.579.564v.928h.579v.984h.58v.983h-.58v.983h-.579v.983h-.58v-.983h-.58v-.983h-.58v-.979c-.195.234-.392.467-.58.707v.271h-.205c-.126.165-.252.33-.375.498v.485h-.354c-.077.11-.149.223-.226.334v.649h-.439c-.209.323-.407.652-.604.983h.463v.984h.58v.983h.579v.983h.58v.983h.579v-.983h.58v-.983h.579v-.983h.58v-.984h.579v-.983h.58v-.983h.58v.983h.579v.983h.58v.984h.579v.983h.58v.983h.58v-1.967h-.58v-.984h.58v-2.95h-.58v.983h-.58v.983h-.579v-.983h-.58v-.983h-.579v-.978h.579v-.984h.58v-.983h.579v.983h.58v.984h.58V9.869h-.58v-.983h.58V7.067c-.193.13-.39.257-.58.391v.444zm-5.797 9.836h-.58V15.77h.579v1.968zM2.58 35.443v-.984h.58v-.983h.579v-.983h.58v-.984h-.58v-.983H3.16v-.984h-.58v-.983h-.378A30.282 30.282 0 0 0 2 32c0 1.166.073 2.313.203 3.443h.377zm12.174-5.902h-.58v.984h-.579v.984h-.58v.983h.58v.984h.579v.983h.58v.984h.58v-6.885h-.58z"/><path fill="#FFF" d="M9.537 12.14c-.197.223-.386.453-.576.681h.576v-.681zm.281 40.024c.099.107.198.215.298.32v-.32h-.298zm-.856-.983c.19.228.378.458.575.68v-.68h-.575z"/><path fill="#FFF" d="M14.754 55.115v-.983h.58v-2.951h-.58v.983h-.58v.983h-.579v-.983h-.58v-.983h-.579v-.983h.579v-.984h.58v-.983h.579v.983h.58v.984h.58v-2.951h-.58v-.983h.58v-1.968h-.58v.984h-.58v.983h-.579v.983h-.58v.983h-.579v.983h-.58v-.983h-.58v-.983h-.579v-.983h-.58v-.983h-.58v-.984h-.58v-.983h-.58v.983h-.58v.984h-.579v.983h-.58v.983h-.463c.197.331.395.661.604.983h.439v.649c.076.111.148.225.226.334h.354v.486c.123.167.249.333.376.498h.204v.271c.188.24.385.474.58.707v-.978h.58v-.984h.579v-.983h.58v.983h.579v.984h.58v.983h-.58v.983h-.579v.929c.189.191.385.378.579.563v-.509h.58v-.983h.58v.983h.579v.984h.58v.983h.579v.983h.58v.443c.19.135.387.262.58.392v-1.818h-.58zm-5.797-6.886h-.58v-1.967h.579v1.967zm5.797-10.819h-.58v-.983h-.579v-.984h-.58v.984h-.579v.983h-.581v.984h-.58v.983h-.579v.984h-.58v.984h.58v.983h.579v.984h1.74v-.984h-1.16v-.983h.581v-.984h.579v-.984h.58v.984h.579v.984h.58v.983h.58v-1.967h-.58v-.984h.58v-.983h-.58zm0-14.754h-.58v.984h-.579v.983h-.58v-.983h-.579v-.984h-.581v-.983h1.16v-.985h-1.74v.985h-.579v.983h-.58v.984h.58v.983h.579v.983h.58v.985h.581v.983h.579v.984h.58v-.984h.579v-.983h.58v-.985h.58v-.983h-.58v-.983h.58v-1.967h-.58zM3.739 39.377h.58v.984h.579v.983h.58v.983H4.319v.983h1.739v-.983h.579v-.983h.58v-.983h-.58v-.984h-.578v-.983h-.58v-.984h-.58v-.983h-.58v-.983h-.58v.983H3.16v.983h-.58v.438c.169.852.376 1.688.615 2.513h.544v-.984zm6.377-12.786h-.579v-.984h-.58v-.983h-.58v.983h-.58v.984h-.579v.983h-.58v.983h-.579v.983h-.58v4.917h.58v.984h.579v.983h.58v.983h.579v.983h.58v.983h.579v-.983h.58v-.98h.579v-.983h.58v-.983h.579v-.984h.58v-4.917h-.58v-.983h-.579v-.983h-.58v-.986zm-3.478 5.311v.59h-.579v-.984h.579v.394zm4.058.197v-.59h.579v.984h-.579v-.394zm-2.319-5.508h.579v.983h-.579v-.983zm.58 10.819h-.58v-.983h.579v.983zm1.159-6.885h-.579v.983h-.58v.984h.58v.983h.579v1.968h-.579v-.984h-.58v-.983h-.58v.983h-.58v.984h-.579v-1.968h.579v-.983h.58v-.984h-.58v-.983h-.579v-1.968h.579v.983h.58v.984h.579v-.984h.58v-.983h.579v1.968z"/><path fill="#C8313E" d="M7.218 15.121c-.147.216-.298.43-.439.649h.439v-.649zm.579-.334v-.485c-.118.161-.238.321-.354.485h.354zm.58-.983v-.271c-.07.089-.136.182-.205.271h.205zM6.059 31.902v.59h.579v-.983h-.579zm8.695-15.148h.58v.984h-.58zM8.957 12.82v.005l.004-.005z"/><path fill="#C8313E" d="M9.537 13.804v.983h.579v.983h.58v-.983h.579v-.983h.58v-.984h-.58v-.984h-.579v-.928c-.197.198-.389.403-.58.607v.32h-.298c-.093.103-.189.2-.281.304v.681h-.576l-.004.005v.979h.58zm5.217-4.918h.58v.983h-.58zm0 2.95h-.58v-.983h-.579v.983h-.58v.984h-.579v.984h.579v.983h.58v.984h.579v-.984h.58v-.983h.58v-.984h-.58zm-2.899-.983v.983h.58v-.983h.579v-.984h.58v-.983h.579v-.984h.58v-.444A30.334 30.334 0 0 0 11.612 10h.016c-.12.111-.234.23-.353.344v.509h.58zm-3.246 4.918h-.232v1.967h.58v-1.967h-.232zm.928 13.77h-.58v.984h-.58v-.984h-.58v-.983h-.579v1.967h.579v.984h.58v.983h-.58v.984h-.579v1.967h.579v-.984h.58v-.983h.58v.983h.58v.984h.579v-1.967h-.579v-.984h-.58v-.983h.58v-.984h.579v-1.967h-.579zm5.217-5.901h.58v.983h-.58z"/><path fill="#C8313E" d="M14.754 18.722h-.58v-.983h-.579v-.984h-.58v-.983h-.579v-.983h-.58v.983h-.58v.983h-.579v.984h-.58v.983h-.58v.983h-.58v.983h-.58v-.983h-.58v-.983h-.579v-.983h-.58v-.984h-.463A29.583 29.583 0 0 0 4.5 20h.004a29.995 29.995 0 0 0-1.309 3.64h.544v.983h.58v-.983h.579v-.983h.58v-.983H4.319v-.984h1.739v.984h.579v.983h.58v.983h-.58v.983h-.578v.983h-.58v.984h-.58v.983h-.58v.983h-.58v-.983H3.16v-.983h-.58v-.438a30.176 30.176 0 0 0-.378 2.405h.378v.983h.58v.984h.579v.983h.58v.984h-.58v.983H3.16v.983h-.58v.984h-.377c.093.813.22 1.614.377 2.405v-.436h.58v-.983h.579v-.983h.58v.983h.579v.983h.58v.983h.58v.983h.579v.984h.58v.983h-.58v.983h-.578v.983h-1.74v-.983h1.159v-.983h-.58v-.983h-.579v-.984h-.58v.984h-.544A30.042 30.042 0 0 0 4.504 44H4.5a29.597 29.597 0 0 0 1.675 3.246h.463v-.983h.58v-.983h.579v-.984h.58v-.983h.579v.983h.58v.984h.579v.983h.58v.983h.579v.983h.58v.983h.58v-.983h.579v-.983h.58v-.983h.579v-.983h.58v-.984h.58v-1.967h-.58v-.983h-.58v-.983h-.579v-.984h-.58v.984h-.579v.983h-.58v.983h1.159v.983h-1.739v-.983h-.579v-.983h-.58v-.983h.58v-.984h.579v-.983h.58v-.986h.58v-.983h.579v-.983h.58v.983h.579v.983h.58v.983h.58v-2.95h-.58v-.984h-.58v-.983h-.579v-.983h-.58v-.984h.58v-.983h.579v-.984h.58v-.983h.58v-2.951h-.58v.984h-.58v.983h-.579v.983h-.58v-.983h-.579v-.983h-.58v-.984h-.58v-.983h-.579v-.985h-.58v-.983h.58v-.983h.579v-.984h1.739v.984h-1.159v.983h.58v.983h.579v.983h.58v-.983h.579v-.983h.58v-.983h.58v-1.968h-.58v-.984zm-4.058 8.852v.983h.579v.983h.58v4.917h-.58v.984h-.579v.983h-.58v.983h-.579v.983h-.58v.983h-.58v-.983h-.58v-.98h-.579v-.983h-.58v-.983h-.579v-.984h-.58v-4.917h.58v-.983h.579v-.983h.58v-.983h.579v-.984h.58v-.983h.579v.983h.58v.984h.579v.983h.581z"/><path fill="#C8313E" d="M8.725 27.574h.232v-.983h-.58v.983h.232zM7.218 48.229h-.44c.142.22.292.434.439.649v-.649zm.579.984h-.354c.115.164.235.324.354.486v-.486zm.58.984h-.204c.068.09.135.182.204.271v-.271zm6.377-3.934h.58v.983h-.58zm0 2.95h-.58v-.984h-.579v.984h-.58v.984h-.579v.984h.579v.983h.58v.983h.579v-.983h.58v-.983h.58v-.984h-.58zm-5.792 1.968l-.005-.006v.006z"/><path fill="#C8313E" d="M9.537 51.181v.68c.092.104.188.202.281.304h.298v.32c.191.205.383.409.58.608v-.929h.579v-.983h.58v-.983h-.58v-.984h-.579v-.983h-.58v.983h-.579v.984h-.58v.978l.005.006h.575zm5.217 2.951h.58v.983h-.58zM11.612 54a30.007 30.007 0 0 0 3.142 2.542v-.443h-.58v-.983h-.579v-.983h-.58v-.984h-.579v-.983h-.58v.983h-.58v.509c.118.113.232.232.353.344h-.017zm-3.003-7.737h-.232v1.966h.58v-1.966h-.232zm6.145-6.886h.58v.984h-.58zm-3.479-7.278v-.59h-.579v.983h.579zm-2.666 4.328h-.232v.983h.58v-.983h-.232z"/><path fill="#83BF4F" d="M15.334 44v12.933A29.823 29.823 0 0 0 32 62c7.874 0 15.035-3.037 20.388-8h-.016A30.059 30.059 0 0 0 59.5 44H15.334z"/><path fill="#C94747" d="M59.496 44C61.104 40.324 62 36.268 62 32s-.896-8.324-2.504-12h.004a30.059 30.059 0 0 0-7.128-10h.016C47.035 5.037 39.874 2 32 2a29.83 29.83 0 0 0-16.666 5.066V44h44.162z"/></svg>