<svg xmlns="http://www.w3.org/2000/svg" width="64" height="64" viewBox="0 0 64 64"><path fill="#3E4347" d="M32 2C18.939 2 7.832 10.35 3.713 22h56.572C56.166 10.35 45.061 2 32 2z"/><path fill="#83BF4F" d="M32 62c13.061 0 24.166-8.35 28.285-20H3.713C7.832 53.65 18.939 62 32 62z"/><path fill="#ED4C5C" d="M3.713 22C2.607 25.129 2 28.492 2 32s.607 6.871 1.713 10h56.572C61.393 38.871 62 35.508 62 32s-.607-6.871-1.715-10H3.713zM32 12.34c-5.027 0-9.305 3.213-10.891 7.697h21.777C41.305 15.553 37.027 12.34 32 12.34zm.537-5.55c0-.591-.18-1.164-.537-1.164-.395 0-.537.591-.537 1.164 0 1.432.178 2.148.537 4.207.365-2.059.537-2.794.537-4.207zm1.486.111c.053-.589-.074-1.175-.434-1.206-.393-.034-.586.542-.637 1.113-.123 1.426-.006 2.155.17 4.237.544-2.019.778-2.734.901-4.144zm.215 4.292c.717-1.965 1.014-2.658 1.26-4.051.104-.582.025-1.177-.328-1.239-.389-.068-.631.488-.73 1.053-.249 1.411-.198 2.147-.202 4.237zm2.705-3.682c.152-.57.127-1.169-.217-1.263-.381-.102-.672.433-.82.985-.371 1.383-.383 2.121-.57 4.202.885-1.893 1.242-2.558 1.607-3.924zm1.409.493c.203-.555.23-1.153-.105-1.277-.373-.134-.707.372-.904.911-.49 1.345-.566 2.079-.934 4.136 1.048-1.81 1.458-2.441 1.943-3.77zm1.359.615c.252-.536.33-1.131.006-1.283-.357-.165-.736.31-.979.829-.604 1.297-.746 2.021-1.291 4.039 1.201-1.712 1.666-2.304 2.264-3.585zm1.303.731c.295-.513.428-1.098.117-1.277-.344-.197-.764.243-1.049.739-.715 1.24-.918 1.95-1.637 3.911 1.346-1.6 1.862-2.15 2.569-3.373zm1.232.84c.338-.485.52-1.057.227-1.263-.322-.226-.779.176-1.107.646-.822 1.173-1.084 1.861-1.971 3.754 1.478-1.476 2.039-1.978 2.851-3.137zm-1.961 3.823c1.604-1.343 2.205-1.795 3.115-2.878.379-.453.609-1.006.336-1.236-.301-.254-.789.106-1.158.546-.92 1.096-1.244 1.76-2.293 3.568zm.83.758c1.713-1.197 2.354-1.594 3.354-2.595.418-.418.695-.949.443-1.203-.279-.278-.799.039-1.203.444-1.014 1.013-1.393 1.646-2.594 3.354zm.76.83c1.811-1.044 2.482-1.384 3.566-2.292.451-.38.775-.886.547-1.159-.252-.303-.799-.032-1.236.335-1.098.92-1.531 1.519-2.877 3.116zm.684.892c1.895-.882 2.596-1.161 3.754-1.973.484-.339.85-.815.645-1.108-.227-.322-.793-.101-1.26.229-1.175.82-1.659 1.378-3.139 2.852zm.603.948c1.967-.713 2.688-.932 3.912-1.639.512-.296.918-.737.74-1.046-.199-.342-.781-.171-1.277.116-1.24.716-1.771 1.23-3.375 2.569zm.52.997c2.02-.538 2.76-.693 4.039-1.29.537-.25.979-.655.828-.979-.166-.357-.762-.237-1.281.005-1.299.605-1.873 1.07-3.586 2.264zm.429 1.041c2.061-.362 2.809-.451 4.137-.936.557-.201 1.033-.565.91-.902-.135-.37-.738-.302-1.277-.107-1.344.49-1.955.904-3.77 1.945zm4.541.501c.57-.153 1.076-.474.986-.82-.104-.381-.711-.365-1.266-.217-1.076.288-1.707.568-2.826 1.094h2.887c.071-.018.143-.036.219-.057zm-33.029-1.037c-.57-.153-1.168-.129-1.262.217-.102.381.432.672.986.82.072.021.146.038.219.057h2.893c-1.131-.529-1.77-.808-2.836-1.094zm.129-.4c1.344.49 2.078.566 4.135.936-1.811-1.048-2.439-1.461-3.77-1.945-.555-.201-1.152-.229-1.275.107-.135.37.371.707.91.902zm.527-1.395c1.295.604 2.021.745 4.039 1.29-1.711-1.2-2.305-1.667-3.586-2.265-.535-.249-1.131-.329-1.281-.005-.168.358.307.737.828.98zm.645-1.345c1.242.717 1.951.92 3.912 1.639-1.6-1.346-2.15-1.861-3.373-2.568-.514-.296-1.098-.427-1.277-.116-.198.34.244.759.738 1.045zm.764-1.282c1.172.821 1.861 1.085 3.754 1.973-1.477-1.479-1.979-2.041-3.139-2.853-.484-.339-1.057-.521-1.262-.229-.227.323.176.779.647 1.109zm.871-1.212c1.096.92 1.76 1.244 3.566 2.292-1.342-1.603-1.793-2.206-2.877-3.116-.451-.379-1.006-.61-1.236-.335-.254.3.107.789.547 1.159zm4.326 1.462c-1.197-1.714-1.594-2.354-2.594-3.354-.418-.419-.949-.697-1.203-.444-.277.278.039.798.443 1.203 1.014 1.013 1.645 1.394 3.354 2.595zm.828-.758c-1.043-1.813-1.383-2.485-2.291-3.568-.381-.453-.885-.775-1.158-.546-.305.253-.033.797.336 1.236.918 1.096 1.517 1.53 3.113 2.878zm.892-.685c-.881-1.896-1.16-2.596-1.971-3.754-.34-.485-.814-.852-1.109-.646-.322.227-.1.792.229 1.263.82 1.172 1.377 1.656 2.851 3.137zm.95-.605c-.713-1.965-.93-2.687-1.639-3.911-.295-.512-.736-.918-1.047-.74-.34.197-.168.78.117 1.277.717 1.241 1.229 1.771 2.569 3.374zm.998-.519c-.539-2.02-.693-2.758-1.291-4.039-.25-.536-.656-.979-.98-.829-.355.167-.236.764.006 1.283.607 1.297 1.069 1.871 2.265 3.585zm1.039-.431c-.361-2.06-.451-2.808-.934-4.136-.203-.556-.566-1.032-.904-.911-.369.135-.301.74-.107 1.277.49 1.348.904 1.959 1.945 3.77zm1.072-.337c-.182-2.083-.203-2.836-.57-4.202-.154-.57-.475-1.078-.82-.985-.381.103-.365.709-.217 1.263.369 1.383.728 2.028 1.607 3.924zm1.098-.243c.002-2.092.043-2.845-.201-4.237-.104-.581-.379-1.114-.732-1.053-.389.068-.424.676-.326 1.239.247 1.411.548 2.085 1.259 4.051zm1.115-.147c.184-2.082.289-2.829.166-4.237-.049-.589-.277-1.144-.633-1.113-.393.034-.484.636-.434 1.206.124 1.426.366 2.124.901 4.144z"/></svg>