<svg xmlns="http://www.w3.org/2000/svg" width="64" height="64" viewBox="0 0 64 64"><path fill="#2A5F9E" d="M32 2C21.744 2 12.695 7.149 7.285 15h49.43C51.305 7.149 42.256 2 32 2zm0 60c10.256 0 19.305-5.149 24.715-13H7.285C12.695 56.851 21.744 62 32 62z"/><path fill="#C94747" d="M59.045 19H4.955A29.9 29.9 0 0 0 2 32a29.9 29.9 0 0 0 2.955 13h54.09C60.938 41.066 62 36.657 62 32s-1.062-9.066-2.955-13z"/><path fill="#FFCE31" d="M4.955 45a30.134 30.134 0 0 0 2.33 4h49.43a30.134 30.134 0 0 0 2.33-4H4.955zm54.09-26a30.134 30.134 0 0 0-2.33-4H7.285a30.134 30.134 0 0 0-2.33 4h54.09zM58.413 31.563H5.587c-.259 0-.468.197-.468.438 0 .242.209.438.468.438h52.826c.258 0 .468-.196.468-.438 0-.241-.21-.438-.468-.438zM12.44 28.494h38.82l1.79.584 2.688-.876-2.688-.877-1.793.584H12.44c-.189 0-.344.132-.344.293s.155.292.344.292zm-2.53 1.753h37.608v.001l.005-.001h.312v.001l.005-.001h.312v.001l.006-.001h.571l1.793.585 2.688-.877-2.688-.876-1.791.583H9.91c-.189 0-.343.132-.343.293s.154.292.343.292z"/><path fill="#FFF" d="M47.518 32.001c-3.163 2.921-7.38 8.766-15.813 8.766-7.38 0-4.926-8.766-4.926-8.766s-2.454-8.767 4.926-8.767c8.432 0 12.649 5.844 15.813 8.767z"/><path fill="#3E4347" d="M30.601 26.284c.841.874.139 1.226 1.029 1.284.939.063.407.924 1.196.954.553.021-.055 2.06.477 2.732.542.702.996.205 1.005.712.01.523-1.474.472-1.5 2.086-.043.93-1.252.99-1.31 1.588-.071.563 2.381.88 2.348 1.383s-2.647.424-2.762.998c-.059.514 3.592.936 3.886 2.425-.545.163-2.095.319-3.266.32-7.378.005-12.65-5.845-15.812-8.767 3.161-2.922 8.433-8.767 15.813-8.767 0 .001-2.19 1.851-1.104 3.052z"/><path d="M21.795 28.883h.768v2.338h-.768zm0 3.897h.768v2.337h-.768zm1.533-3.897h.768v2.338h-.768zm0 3.897h.768v2.337h-.768zm1.534-3.897h.766v2.338h-.766zm0 3.897h.766v2.337h-.766zm1.533-3.897h.768v2.338h-.768zm0 3.897h.768v2.337h-.768zm1.533-3.897h.768v2.338h-.768zm0 3.897h.768v2.337h-.768zm1.533-3.897h.767v2.338h-.767zm0 3.897h.767v2.337h-.767z" fill="#FFF"/><path d="M33.392 28.883h.767v2.338h-.767zm0 3.897h.767v2.337h-.767zm1.533-3.897h.766v2.338h-.766zm0 3.897h.766v2.337h-.766zm1.533-3.897h.767v2.338h-.767zm0 3.897h.767v2.337h-.767zm1.533-3.897h.767v2.338h-.767zm0 3.897h.767v2.337h-.767zm1.533-3.897h.767v2.338h-.767zm0 3.897h.767v2.337h-.767zm1.534-3.897h.767v2.338h-.767zm0 3.897h.767v2.337h-.767z" fill="#3E4347"/><path fill="#A70000" d="M55.099 31.652v.002-.002z"/><path d="M29.248 25.841c-3.783-2.623-4.927 1.153-4.624 2.843.457-.55 2.784 1.645 4.23 1.838-1.115-.819 2.314-3.344.394-4.681-1.89-1.311.35.243 0 0zm27.228 10.446c2.792-3.527-1.308-4.537-3.134-4.237.601.416-1.746 2.592-1.938 3.93.873-1.041 3.646 2.098 5.072.307 1.394-1.761-.26.325 0 0zM9.207 31.765c-4.644.825-2.387 4.144-.829 5.073-.133-.682 3.19-.799 4.317-1.658-1.407.212-1.125-3.831-3.488-3.415-2.318.411.431-.077 0 0z" fill="#428BC1"/></svg>