<svg xmlns="http://www.w3.org/2000/svg" width="64" height="64" viewBox="0 0 64 64"><path fill="#2A5F9E" d="M12 12h21v21H12z"/><path fill="#5B97B1" d="M32 2v30H2c0 16.568 13.432 30 30 30 16.568 0 30-13.432 30-30S48.568 2 32 2z"/><path fill="#FFF" d="M32 2a29.84 29.84 0 0 0-13.088 3.012V11H11v7.912H5.011A29.856 29.856 0 0 0 2 32h12V17l12 15h6v-7.5L23.601 14H32V2z"/><path fill="#ED4C5C" d="M15.429 14L30 32h2v-4.941L21.429 14z"/><path fill="#ED4C5C" d="M32 5H18.913A30.122 30.122 0 0 0 5 18.912V32h6V11h21V5z"/><path d="M28.917 50.15l-.666-2.046-.666 2.046h-2.152l1.742 1.266-.666 2.047 1.742-1.266 1.742 1.266-.665-2.048 1.741-1.265zm8.851-1.591l.666-2.047-1.743 1.265-1.74-1.265.664 2.047-1.74 1.265h2.152l.664 2.047.666-2.047h2.153zm.666-9.263l-1.743 1.266-1.74-1.266.664 2.047-1.74 1.265h2.152l.664 2.047.666-2.047h2.153l-1.742-1.265zm6.787 7.438l.666-2.046-1.742 1.265-1.741-1.265.664 2.046L41.328 48h2.152l.665 2.048.666-2.048h2.152zM43.48 32.301l.665 2.047.666-2.047 2.152-.001-1.742-1.265.666-2.047-1.742 1.266-1.741-1.266.664 2.047-1.74 1.266zm6.206 8.921l-.666-2.046-.665 2.046h-2.152l1.74 1.265-.664 2.047 1.741-1.265 1.742 1.265-.666-2.047 1.742-1.265zm.058-11.062l.664 2.045.666-2.045h2.153l-1.743-1.265.666-2.047-1.742 1.265-1.74-1.265.664 2.047-1.74 1.265zm6.235 7.01l-.665-2.047-.666 2.047h-2.152l1.74 1.266-.664 2.046 1.741-1.265 1.742 1.265-.666-2.047 1.742-1.265zm-1.743-12.58l-.664 2.047 1.741-1.266 1.742 1.266-.666-2.047 1.742-1.266h-2.152l-.665-2.047-.666 2.047h-2.152z" fill="#FFE62E"/></svg>