<svg xmlns="http://www.w3.org/2000/svg" width="64" height="64" viewBox="0 0 64 64"><circle fill="#0071BC" cx="32" cy="32" r="30"/><path fill="#8C8A8C" d="M37.447 47.896l-1.129-8.348-1.281-11.539-.104-1.514c-.051-.756-.281-.986-.525-1.191l-.142.027c1.696-.708 1.476-2.899 1.476-2.899s.525-.641.436-1.692-1.923-1.167-1.923-1.167c-.013.026-3.948-.051-5.244.014-1.295.063-1.475 1.09-1.475 1.09s.103 1.294.462 3.128c.359 1.833 1.244 1.615 1.244 1.615s.262.016.678.031a8.78 8.78 0 0 0-.691.021c-.654.243-.808 1.872-.808 1.872L27.1 39.548l-1.358 9.655s.205.961 1.462 1.359c.18.73 1.191 1.077 1.641 1.141.449.064 1.449-.32 2.025-.372.578-.052 1.526.347 1.795.359.295.013 3.283-.321 3.834-1.475.757-.077 1.025-1.025 1.025-1.025l-.077-1.294z"/><path fill="#FFF" d="M51.297 31.297c.015.015 1.825-1.768-.42-3.563.971-1.825-.203-2.274-.203-2.274s.564-1.478-.971-1.55c.754-1.174-.971-2.478-.971-2.478s.275-1.796-2.447-1.984c.65-2.984-2.348-2.304-2.348-2.304s.551-2.491-3.26-2.144c-.84-2.086-2.636-1.174-2.636-1.174s-1.116-1.535-2.419-.681c-.986-1.217-2.264-.253-2.621-.113-.987-.239-2.515-1.424-3.232-.19-.564-.232-1.694.507-1.694.507s-1.782-1.203-2.984 1.145c-2.361-.928-2.897.999-2.897.999s-1.738-.318-2.23 1.275c-2.55-.174-2.593 1.607-2.593 1.607s-1.622.058-1.767 2.304c-2.318.927-1.463 3.144-1.463 3.144s-1.623.651-1.333 3.375c-1.796 1.275-.029 3.071-.029 3.071s-1.376.941-.101 2.824c-1.709 1.318.507 2.463.507 2.463s-1 1.116.608 2.087c-.869 2.216.812 2.245 1.058 2.332-.063.387.092.772.507.941 0 0-.145 1.854 1.752 1.681-.304.768.507 1.13.521 1.144.015.015-.043 1.564 1.796 1.188.449 1.507 1.318 1.173 1.362 1.173.043 0-.565 1.812 2.188 1.884 1.173 1.261 2.752 1.261 2.752 1.261s1.058-4.883.811-5.606c-.246-.725-2.115-.232-2.115-.232s-.289-1.55-2.303-1.506c.435-.869-.666-.913-.666-.913s1.115-1.304-1.246-1.564c.334-1.55-.348-1.376-1.116-1.724-.014-.564.362-1.521-.84-1.912 1.057-1.392-.623-2.145-.623-2.145s.884-2.101-.333-2.419c1.26-1.304.333-2.463.333-2.463s.869-1.028.536-1.868c.941-.479.84-1.971.84-1.971s1.043-.261 1.304-1.796c1.999-.349 1.825-1.652 1.825-1.652s1.666-.028 1.999-1.506c1.449.405 2.348-1.188 2.348-1.188s1.057.521 2.244-.681c.666 1.028 2.681-.304 2.681-.304s.854.999 2.39.043c.768 1.231 2.057.594 2.057.594s.393.826 1.29.362c.464 1.753 2.781 1.13 2.796 1.13s.145 1.159 1.318.971c.217 1.55 2 1.188 2 1.188s.23 1.869 1.391 2.072c-.508 1.681.896 2.043.896 2.043s-.42 1.231.869 2.317c-1.217.695.146 3.114.16 3.144.014.028-1.072 1.159-.262 2.709-1.332.449-1.07 2.405-1.07 2.405s-1.275 1.043-1.334 2.303c-2.1.406-1.94 2.26-1.94 2.26s-1.638.131-2.072 1.811c-1.448-.304-2.954 1.289-2.954 1.289l.564 4.304c.058.028 3.01.623 3.621-1.377 2.521.667 2.709-1.825 2.709-1.825s1.982-.109 2.057-1.466c1.898-.928 1.392-1.808 1.392-1.808s1.912-.247 1.941-2.274c1.506-.493 1.158-2.217 1.158-2.217s1.348-.681 1.015-3.347c1.099-1.683-.118-3.146-.103-3.131z"/><path fill="#FFF" d="M31.846 36.157l6.693 4.864-2.557-7.871 6.694-4.863h-8.274l-2.556-7.87-2.557 7.87h-8.273l6.693 4.863-2.557 7.87z"/><path fill="#FFCE31" d="M37.273 46.841s8.59-2.427 11.186-12.97c-1.507 10.822-10.906 14.252-10.906 14.252l-.28-1.282zm-11.257-.229s-8.512-2.471-11.082-13.202C16.426 44.426 25.74 47.918 25.74 47.918l.276-1.306z"/><path fill="#ED4C5C" d="M48.791 29.76l-.666.082-.227.881.438.798.665-.084.228-.88zm.067-.07l.228-.881-.438-.797-.666.083-.226.881.435.796zm-.276-1.85l.148-.897-.504-.755-.656.14-.15.898.506.755zm-.414-1.942l-.084-.905-.682-.601-.597.303.084.906.681.602zm-.691-1.564l-.084-.905-.682-.602-.598.304.084.905.682.603zm-1.067-2.479l-.729-.542-.571.354.161.895.73.542.57-.353zm-1.093-1.515l-.779-.469-.534.406.248.876.778.469.533-.407zm-1.303-1.413l-.84-.352-.469.48.372.831.839.35.469-.479zm-1.468-1.302l-.868-.271-.422.52.445.793.867.272.422-.521zm-1.556-1.037l-.9-.125-.33.584.57.708.9.124.331-.584zm-1.74-.922l-.908-.042-.277.611.634.654.908.042.276-.613zm-1.707-.687l-.909.019-.235.628.675.609.91-.018.234-.629zm-1.735-.544l-.906.087-.185.645.721.556.904-.088.185-.645zm-2.79-.099l-.084.665.796.438.881-.226.084-.666-.797-.438zm-1.863-.032l-.026.67.83.369.858-.302.028-.67-.831-.368zm-1.727.06l-.027.67.831.369.859-.3.026-.67-.83-.37zm-1.166-.06l-.749.514.149.655.899.137.75-.514-.15-.655zm-1.841.461l-.704.575.203.639.906.064.705-.575-.203-.639zm-1.681.719l-.631.656.279.61.908-.045.631-.655-.279-.611zm-1.675.859l-.573.707.329.585.902-.123.572-.706-.328-.585zm-1.585 1.075l-.492.765.39.546.883-.22.493-.765-.391-.545zm-1.466 1.112l-.427.803.434.511.862-.294.426-.803-.435-.511zm-1.295 1.353l-.368.831.471.478.837-.354.368-.832-.47-.478zm-1.115 1.504l-.297.859.509.438.805-.424.296-.86-.508-.437zm-1.02 1.539l-.203.887.553.38.755-.506.203-.887-.553-.38zm-.849 1.746l-.048.908.61.28.657-.63.047-.907-.609-.28zm-.075 1.139l-.597.685.034.909.632.223.598-.686-.035-.908zm.143 1.925l-.654-.148-.515.75.139.898.358.082-.241-.018-.411.65.255.699.668.05.412-.649-.256-.7-.101-.007.485-.707z"/><path fill="#FFCE31" d="M47.836 27.512l.66-.209-.51-.732zm.324 1.81l.674-.158-.452-.768zm-.767-3.462l.586-.37-.679-.578zm-.805-1.648l.585-.369-.679-.578.094.948zm-1.934-3.018l.52-.459-.762-.461zm-1.261-1.315l.5-.478-.78-.432zm-2.655-2.239l.329-.61-.874-.171zm1.381 1.035l.43-.542-.831-.32zm-2.957-1.905l.264-.64-.887-.08zm-1.611-.704l.17-.67-.889.047zm-1.735-.537l.113-.683-.882.123zm-7.045-.203l-.175-.669-.756.471zm1.741-.228l-.084-.688-.813.365zm-6.716 2.1l-.386-.575-.558.694zm1.575-.804l-.312-.619-.639.621zm-4.507 2.845l-.497-.481-.401.795zm1.4-1.144l-.459-.52-.462.762zm-2.642 2.369l-.539-.435-.328.828zm-1.114 1.445l-.576-.384-.251.855zm-.932 1.478l-.628-.291-.117.883zm-.818 1.578l-.661-.207-.001.89.662-.683zm-.655 1.62l-.685-.101.14.88zm-.438 1.805l-.69-.054.198.869zm-.179 1.502l-.689.051.288.653zm30.382-7.148l.527-.451-.756-.473zm2.491 8.412l.674-.159-.453-.768zM36.55 18.189l1.382-1.418-1.094-.638zm-9.523.337l.518-1.912-1.267-.025zm-1.885.569l.516-1.911-1.265-.027zm-2.093.645l.517-1.911-1.265-.025zm-1.472 1.473l.517-1.912-1.266-.026zm-1.55 1.421l.516-1.911-1.266-.026zm3.563-8.278l-1.012 1.703 1.213.366zm3.099-.955l-1.011 1.703 1.213.365zm-11.55 8.369l1.006 1.705.903-.887zm-1.549 3.961l.724 1.843 1.033-.733zm3.572 4.426l-1.323-1.473-.71 1.047z"/><path fill="#FFCE31" d="M16.42 28.244l.554-1.901-1.265-.05zm22.326-9.098l1.381-1.419-1.093-.639zm3.249 1.621l.388-1.943-1.265.06zm8.867 9.206L49.537 28.5l-.709 1.049zm-4.335.685l.747-1.833 1.023.746zm-.699-12.545l-1.98.007.31 1.228zm-2.531-2.118l-1.981.007.311 1.227zm-3.776-2.019l-1.033 1.689 1.209.38zm-2.457-.592l-.005 1.98 1.229-.301zm-6.972 4.251l.654-1.869-1.262-.118zm14.461 5.791l.386-1.942-1.263.059.877 1.883z"/><path fill="#699635" d="M18.633 20.528c.979.979-1.009 3.63.058 5.157-.055-.713.934-5.157-.058-5.157zm-.312.246c-1.54 1.437-1.081 4.299-1.199 6.227.035-.589 1.697-5.729 1.199-6.227zm27.665.539c-.934 0-.018 4.839-.273 5.623 1.457-1.662-.776-4.575.273-5.623zm1.26 2.77c-1.629 2.003 1.277 3.642 1.156 5.595.129-2.076-1.542-3.535-1.156-5.595zm-14.344-9.35c-.536-.43-1.266-.488-1.863.307 1.847-.429 2.378 1.615 1.268 2.801 1.533-.447 1.563-1.765 1.014-2.628 1.133.309 1.533 1.323 1.374 2.613 1.885-1.021-.31-3.984-1.793-3.093zm15.965 17.215l-.002-.018.002.016-.002-.016c-.268 1.691-1.9 5.94-.83 7.415-.344-.963.621-2.896.949-3.877-.029.6.043 1.178.43 1.71-.667-1.859 1.091-3.258-.547-5.23zm0 0l.001.02-.001-.02zm.001.002c.321.623.345 1.264.291 1.898-.067-.601-.241-1.168-.291-1.898zm-34.575.356l-.01.157.01-.157zm1.018 7.208c1.204-1.653-.715-5.395-1.013-7.273-.165 2.576 1.253 4.781 1.013 7.273zm-1.028-7.051c-.004.07-.006.099 0 0z"/><path fill="#699635" d="M14.438 38.797c1.249-1.718-.971-4.325-.142-6.538l-.003.047.003-.047.001-.004-.001.001.001-.016-.001.016c-2.167 2.612.994 4.173.142 6.541z"/></svg>