<svg xmlns="http://www.w3.org/2000/svg" width="64" height="64" viewBox="0 0 64 64"><g fill="#FFCA28"><path d="M20.519 59.717l7.027-7.2a20.87 20.87 0 0 1-6.904-2.87l-.123 10.07zM43.481 4.284l-7.027 7.199a20.872 20.872 0 0 1 6.904 2.871l.123-10.07zm-31.997 32.17l-7.201 7.025 10.07-.122a20.893 20.893 0 0 1-2.869-6.903zm41.032-8.907l7.199-7.027-10.07.123a20.902 20.902 0 0 1 2.871 6.904zm-38.161-6.905l-10.07-.123 7.199 7.027a20.893 20.893 0 0 1 2.871-6.904zm35.29 22.716l10.07.122-7.199-7.026a20.902 20.902 0 0 1-2.871 6.904zM27.546 11.483l-7.025-7.2.121 10.07a20.888 20.888 0 0 1 6.904-2.87zm8.908 41.034l7.027 7.199-.123-10.069a20.891 20.891 0 0 1-6.904 2.87zm-21.702-8.555l-3.965 9.251 9.251-3.965a21.124 21.124 0 0 1-5.286-5.286zm34.496-23.923l3.965-9.252-9.251 3.965a21.145 21.145 0 0 1 5.286 5.287zM11 32c0-1.278.133-2.524.352-3.741L2 31.999l9.352 3.74A21.034 21.034 0 0 1 11 32zm51 0l-9.354-3.741c.219 1.217.352 2.463.352 3.741 0 1.279-.133 2.525-.352 3.741L62 32zM20.038 14.751l-9.251-3.965 3.965 9.252a21.128 21.128 0 0 1 5.286-5.287zm23.924 34.497l9.251 3.965-3.965-9.251a21.124 21.124 0 0 1-5.286 5.286zm-8.221-37.896L32.001 2l-3.742 9.352a21.072 21.072 0 0 1 3.74-.352c1.279 0 2.525.133 3.742.352zm-7.482 41.296L32.001 62l3.74-9.352a21.077 21.077 0 0 1-3.742.352c-1.277 0-2.523-.133-3.74-.352z"/><path d="M31.999 13C21.507 13 13 21.508 13 32c0 10.493 8.507 19 18.999 19 10.494 0 18.999-8.507 18.999-19 0-10.492-8.505-19-18.999-19zM20.35 30.742c1.176-3.238 2.951-4.857 4.725-4.857s3.547 1.619 4.725 4.857c.117.326-.49.912-.795.594-1.139-1.205-2.506-1.684-3.93-1.684s-2.789.479-3.93 1.684c-.305.318-.913-.268-.795-.594zm20.373 7.501c-1.557 2.563-4.697 4.845-8.721 4.845-4.025 0-7.166-2.282-8.723-4.845-.416-.686.137-1.428.752-1 5.105 3.562 10.803 3.583 15.939 0 .616-.428 1.169.315.753 1zm2.132-6.907c-1.141-1.205-2.506-1.684-3.932-1.684-1.424 0-2.789.479-3.93 1.684-.303.318-.912-.268-.795-.594 1.178-3.238 2.953-4.857 4.725-4.857 1.775 0 3.549 1.619 4.727 4.857.116.326-.49.912-.795.594z"/></g></svg>