<svg xmlns="http://www.w3.org/2000/svg" width="64" height="64" viewBox="0 0 64 64"><path fill="#D3976E" d="M16.381 61.923c-6.146 0-11.979-.027-14.256-30.822-3.098-41.982 52.103-26.738 52.103-2.469.001 13.224-37.847 33.291-37.847 33.291z"/><path opacity=".5" fill="#FFF" d="M3.602 31.101C2.276 13.126 11.643 5.671 22.788 4.892c-.012-.021-.01-.043-.016-.063C11.006 5.037.741 12.341 2.125 31.101c2.107 28.521 7.342 30.806 12.902 30.806-5.142-.885-9.503-4.797-11.425-30.806z"/><path fill="#594640" d="M19.342 25.513L4.389 32.072l-2.234 4.947 2.656 1.592-1.92 4.252 1.453.871-2.053 4.549 3.256 1.951-1.937 4.288 4.113 2.467-.727 1.611 4.477 2.684.893-1.973 2.229 2.537 3.619-.928 11.678-22.48-10.55-12.927z"/><path fill="#89664C" d="M23 39l3-4-22.296-2.915-1.621 3.591 3.25 1.953.986-2.184 1.676 1.006-1.283 2.84-2.272-1.36-1.621 3.592 3.25 1.949 1.346-2.979 2.166 1.299-.145.32 2.002 1.199-.551.627-3.051-1.83-1.291 2.862-2.703-1.621-1.625 3.594 3.252 1.949L6.76 46.03l2.707 1.621.842-1.867.668.758-1.047 2.316-1.572-.939-1.275 2.82-1.924-1.15-1.621 3.592 3.252 1.951 1.275-2.824 1.922 1.152.33-.732 1.031 1.172-.516 1.139-2.285-1.371-1.625 3.594 3.252 1.947 1.41-3.117 2.354 3.357 2.219-2.52 1.797 2.043 2.555-2.904-2.555-2.906-2.219 2.523-.701-.797.461-1.02 2.303-2.721 1.236 1.402 2.555-2.904-2.555-2.906-2.428 2.76-1.236-1.404-1.977 2.248 1.33-2.947-1.156-.693.676-.77.563.338 1.697 1.928 2.555-2.904-2.555-2.906-.191.219-.934-.559 1.176-1.338 1.701 1.936-.229.258 2.311 2.625-.527.6 2.557 2.904 2.555-2.904L23 39z"/><path d="M9.627 38.069l-2.265-1.357-1.131 2.502 2.266 1.359zm4.336-1.24l.707-1.562-1.416-.848-.707 1.562zm-3.386 5.41l-.707 1.565 1.416.847.707-1.562zm.554 3.442l-.705 1.564 1.414.848.707-1.563zm2.024-4.188l1.416.848.707-1.563-1.416-.849zm-8.613 3.209l-1.413-.848-.709 1.563 1.418.85zm.136 6.012l-.705 1.564 1.414.848.705-1.563zm2.678 5.642l1.416.846.707-1.562-1.416-.85zm-.041-10.089l.707-1.563-1.416-.85-.707 1.565zm.264 1.146l-1.131 2.502 2.265 1.357 1.131-2.503zm3.201 5.563l1.416.847.707-1.564-1.416-.848zm1.328 3.714l1.416.85.705-1.564-1.414-.848zM18.213 35.153L17.1 33.89l-1.111 1.263 1.111 1.264zm1.129 3.957l-1.779-2.023-1.781 2.023 1.781 2.024zm.465 1.807l-1.113 1.266 1.113 1.263 1.111-1.263zm.588 4.488l1.113 1.264 1.112-1.264-1.112-1.265zm-3.945 1.696l1.113 1.261 1.111-1.261-1.111-1.266zm.314 6.259l1.113 1.264 1.112-1.264-1.112-1.265zm-1.855 3.84l1.113 1.266 1.111-1.266-1.111-1.262z" fill="#D3976E"/><path fill="#FFEC40" d="M45.705 8.806l-9.466-6.279L34.913 2l.381 3.9L24 3.58l-1.197.345L11 12 6.292 24.027 3 25v2l7-2-3.308 3.195.982 4.422 18.037 1.226z"/><path fill="#83BF4F" d="M22.507 4.587c-2.22-.439-4.025 1.972-6.134 2.735-2.25.814 1.793 3.82 2.97 3.808-.273.005-.482.009.005 0 .803-.015.37-.007.016-.001 3.403-.079 9.836-5.219 3.143-6.542z"/><g fill="#83BF4F"><path d="M11.536 17.138c.781-2.251.495-5.086-2.617-3.115-2.637 1.667.238 4.331-2.967 5.828-3.063 1.43-.97 5.38 1.708 4.223 2.296-.993 3.122-4.699 3.848-6.847-.145.417-.383 1.103.028-.089z"/><path d="M11.536 17.138l-.029.088c.078-.228.129-.377.029-.088z"/></g><path fill="#83BF4F" d="M24.664 31.32c.255.254.53.527-.007-.008-.435-.432-.241-.238-.014-.012-3.677-3.619-9.07 4.984-7.862 6.572 4.716 6.201 10.124-4.279 7.883-6.552z"/><g fill="#ED4C5C"><path d="M13.329 25.513l-2.627 6.137 6.597 2.384 3.657-6.689z"/><path d="M9.704 24.259l3.42 2.739 5.677-4.026-3.703-2.959zm11.183-4.758l4.656 3.524 5.926-3.598-3.103-4.209zm-5.002-8.048l.371 4.834 6.508-3.008-.262-3.397-3.017-1.675zm13.533-8.264l-1.676 5.065L35 9l-.379-4.934zM37 3l.385 5.004 6.68-.738.834-3.043z"/></g><g fill="#83BF4F"><path d="M35.153 11.71c2.752.694-1.009-.255 0 0z"/><path d="M36 12c-.9-.731-2.717 2.182-3.675 2.835-1.198.816-10.671 3.145-2.527 5.219 2.614.665 8.175-6.451 6.202-8.054z"/></g><g fill="#83BF4F"><path d="M40.321 9.742c-.834-.492.757.449 0 0z"/><path d="M43.273 5.725c-1.728 2.341-1.438-2.603-3.854-.415-1.465 1.327-.687 3.495.901 4.432 1.449.86 6.279.353 6.565-1.877.211-1.612-2.394-3.791-3.612-2.14z"/></g><path fill="#83BF4F" d="M7 26c-1.414 0-4.282 3.689-4.283 3.691-2.638 2.767 2.766 2.839 2.871 3.303a40.19 40.19 0 0 1-2.486 1.707c-.02 1.974 4.229-.205 3.881-.002-2.385 4.059 7.473-.682 8.074-1.053C18.505 31.531 13 26 7 26z"/><g fill="#83BF4F"><path d="M18.036 21.855c-1.416-.016.8.01 0 0z"/><path d="M20.367 16.321C17 10 16.577 16.313 16 17c-.353.42-5 0-2.927 2.539.866 1.061 3.647 2.696 4.963 2.316C21 21 21.073 17.646 20.367 16.321z"/></g><path fill="#FFFFD4" d="M20.696 23.953L9.792 25.396l-2.831 2.143 1.276.927 10.721-3.449 2.789-.264zm8.29-11.242l-4.683-.412L14 15.721 15.6 17l8.486-2.717 4.986-.439zm-5.841 8.525l-1.145.1 2.092 5.096 3.07.568.834-1.789-1.818-.701zm-1.643 6.49l2.241 6.181-1.68 1.108-1.783-5.469zM38.565 7.289l-2.041-.584L34.913 2l-1.353.119 1.623 5.466 2.73 1.073zm-8.951-2.028l-6.811-1.336-.679 1.028 7.154 1.98z"/><path fill="#FBBF67" d="M16.381 61.923s4.184 0 6.637-16.221c2.48-16.4 13.485-38.529 30.625-38.529 5.943 0 9.979 3.943 7.722 25.17-.4 3.738-39.763 29.58-44.984 29.58z"/><path fill="#FDDFB3" d="M53.663 6.154c-21.651 0-28.387 24.609-30.645 39.55-2.453 16.219-9.105 16.166-9.105 16.166s4.178.527 5.416-.541c1.771-1.527 3.861-5.365 5.166-13.98 2.26-14.933 10.35-39.662 29.736-39.662 5.455 0 7.345 7.922 7.345 7.922s-.972-9.455-7.913-9.455z"/><path fill="#D3976E" d="M39.169 40.835l1.002-1.07.999 1.072-1.001 1.07zm1.311-14.052l1.001-1.071.999 1.071-1.001 1.072zm15.631 0l1-1.071 1 1.071-1 1.072zm-1.882-11.012l1-1.07 1 1.07-1 1.072z"/><path fill="#FDDFB3" d="M48.343 33.358l-.999 1.073.999 1.07 1.001-1.07-1.001-1.073m2.311-12.601l-.998 1.073.998 1.07 1.002-1.07-1.002-1.073m-7.686-3.728l-.999 1.07.999 1.07 1.001-1.07-1.001-1.07m-9.432 15.773l-1 1.072 1 1.068 1-1.068-1-1.072M31.233 46.39l-.998 1.072.998 1.07 1.002-1.07-1.002-1.072"/></svg>