<svg xmlns="http://www.w3.org/2000/svg" width="64" height="64" viewBox="0 0 64 64"><path fill="#F5F0AE" d="M61.299 29.224C57.755 14.66 41.763 5.44 25.58 8.631 9.4 11.821-.844 26.214 2.701 40.775 6.245 55.34 22.237 64.559 38.418 61.369 54.6 58.178 64.844 43.785 61.299 29.224z"/><path d="M29.315 8.34c-.177-.065-.343-.116-.518-.179a33.279 33.279 0 0 0-3.218.47 33.323 33.323 0 0 0-3.139.784c-.13.122-.256.23-.387.356A82.09 82.09 0 0 1 26.3 11.59a74.725 74.725 0 0 1 3.015-3.25zm-5.943 8.414l4.857 2.755 3.133-4.33-4.785-2.458zm1.971 9.048l5.22 3.295 3.211-4.957-5.185-3.157zm2.374 10.061l5.329 3.434 3.247-5.125-5.329-3.43zm10.948 8.373l-5.219-3.295-3.211 4.955 5.185 3.155zm1.967 9.035l-4.854-2.75-3.132 4.325 4.782 2.453zm-5.943 8.397c.171.063.33.111.499.172 1.073-.105 2.15-.258 3.229-.471s2.13-.48 3.153-.789c.126-.117.246-.221.373-.342a83.45 83.45 0 0 1-4.242-1.813 71.977 71.977 0 0 1-3.012 3.243zm-1.043-47.562l2.803-3.668-4.706-2.041-2.916 3.293zm-2.667 5.64l5.191 3.14 2.968-4.532-5.094-2.941zm10.843 8.079l-5.231-3.374-3.165 4.948 5.305 3.427zm2.441 10.034l-5.128-3.379-3.23 5.112 5.172 3.299zm1.958 9.608l-4.799-2.996-3.256 4.802 4.793 2.78zm-3.018 5.918l-3.255 4.002 4.174 1.886 3.328-3.617zM38.902 8.723a33.11 33.11 0 0 0-4.247-.617c1.156.459 2.331.955 3.533 1.52.247-.314.478-.605.714-.903zm-2.98 5.696l5.064 2.916 2.58-3.938-4.928-2.667zm2.636 8.865l5.174 3.362 2.747-4.617-5.036-3.262zm5.599 4.964l-3.023 4.971 5.055 3.379 2.9-4.948zm7.026 13.123l-4.637-3.16-3.14 5.002 4.718 3.014zm1.359 8.928l-4.169-2.604-3.248 4.551 4.177 2.324zm-5.615 8.121a30.428 30.428 0 0 0 3.532-2.137l-1.054-.543a55.678 55.678 0 0 1-2.478 2.68zm-.568-47.111a32.221 32.221 0 0 0-5.218-2.017c-.147.2-.289.388-.441.593a75.18 75.18 0 0 1 4.869 2.655l.79-1.231zm-.291 2.498l-2.448 3.908 4.926 3.255 2.253-4.034zm7.519 12.036l-4.584-3.384-2.612 4.558 4.792 3.395zm-2.023 6.144l-2.776 4.886 4.489 3.156 2.593-4.799zm5.907 12.38l-3.919-2.814-2.964 4.808 4.036 2.625zm-5.905 10.194c.229.127.44.242.663.363a28.235 28.235 0 0 0 3.806-3.791c-.418-.266-.836-.529-1.276-.811a65.065 65.065 0 0 1-3.193 4.239zm1.078-39.146a30.03 30.03 0 0 0-4.514-3.173l-.467.766a74.777 74.777 0 0 1 4.604 3.128c.131-.248.251-.48.377-.721zm2.414 9.437l1.831-4-4.14-3.36-2.112 3.98zm4.255 4.779l-3.843-3.296-2.252 4.5 4.134 3.239zm-4.096 10.68l3.765 2.816 2.203-4.609-3.519-2.942zm1.225 8.798c.266.178.511.342.768.512a26.163 26.163 0 0 0 2.63-4.578l-.666-.504a64.75 64.75 0 0 1-2.732 4.57zm4.491-21.226a25.377 25.377 0 0 0-2.518-5.668 88.848 88.848 0 0 1-1.299 3.118 72 72 0 0 1 3.57 3.287c.09-.254.163-.49.247-.737zm.661 2.723c-.189-.19-.365-.379-.563-.574a64.116 64.116 0 0 1-1.719 4.331c.942.809 1.803 1.584 2.621 2.336.139-2 .04-4.04-.339-6.093zM20.79 16.587l3.255-4.001-4.174-1.887-3.328 3.617zm-3.017 5.918l4.798 2.997 3.256-4.802-4.793-2.78zm1.957 9.607l5.128 3.378 3.23-5.108-5.172-3.3zm10.838 8.462l-5.306-3.429-3.091 5.001 5.231 3.374zm2.446 9.653l-5.191-3.141-2.968 4.531 5.095 2.942zm-2.667 5.638l-2.803 3.668 4.707 2.041 2.915-3.293zM17.005 11.616a29.968 29.968 0 0 0-3.444 2.087c.341.176.673.344 1.027.529a54.346 54.346 0 0 1 2.417-2.616zm-5.554 8.058l4.169 2.601 3.248-4.549-4.176-2.324zm1.361 8.929l4.635 3.158 3.141-5-4.718-3.015zm7.024 13.122l3.023-4.973-5.055-3.377-2.899 4.947zm5.601 4.963l-5.176-3.364-2.746 4.619 5.036 3.264zm2.634 8.865l-5.064-2.916-2.579 3.937 4.927 2.666zm-2.999 5.718c1.423.305 2.878.516 4.354.629a61 61 0 0 1-3.622-1.555c-.251.323-.489.62-.732.926zm-12.645-45.86c-.221-.123-.423-.232-.64-.352a28.385 28.385 0 0 0-3.811 3.79l1.259.8a65.489 65.489 0 0 1 3.192-4.238zM6.523 25.606l3.918 2.812 2.964-4.808-4.036-2.624zm5.906 12.38l2.777-4.886-4.49-3.157-2.592 4.797zm5.174 4.969l-4.792-3.394-2.405 4.568 4.584 3.385zm.323 13.213l2.447-3.91-4.926-3.256-2.253 4.035zm-.304 2.516a32.082 32.082 0 0 0 5.214 2.016c.154-.205.301-.4.457-.611a75.686 75.686 0 0 1-4.869-2.656c-.278.43-.539.838-.802 1.251zM7.551 20.861l-.75-.499a26.303 26.303 0 0 0-2.634 4.577l.652.493a64.998 64.998 0 0 1 2.732-4.571zm1.224 8.801l-3.763-2.817-2.203 4.609 3.518 2.942zM4.68 40.34l3.843 3.297 2.252-4.5-4.133-3.239zm4.257 4.781l-1.833 4 4.141 3.361 2.112-3.982zm2.404 9.449a29.956 29.956 0 0 0 4.513 3.178l.477-.783a74.933 74.933 0 0 1-4.604-3.129c-.134.252-.256.49-.386.734zM2.068 33.281a24.146 24.146 0 0 0 .334 6.088c.189.193.363.377.561.572a62.904 62.904 0 0 1 1.719-4.332c-.94-.808-1.798-1.58-2.614-2.328zm.992 8.811a25.396 25.396 0 0 0 2.516 5.674c.395-.996.819-2.029 1.303-3.127a73.525 73.525 0 0 1-3.571-3.285c-.091.253-.163.49-.248.738z" fill="#D0D18B"/><path fill-rule="evenodd" clip-rule="evenodd" fill="#8CC63E" d="M35.647 11.847l-11.335.016c.625-.705 2.672-1.72 6.156-1.72 3.157 0 5.095.733 5.179 1.704z"/><path fill-rule="evenodd" clip-rule="evenodd" fill="#64892F" d="M35.647 11.847c.088.971-2.471 2.52-5.713 2.814-3.241.296-5.938-.773-6.024-1.745-.086-.971 1.387-2.977 6.07-1.508 3.107.974 5.583-.532 5.667.439z"/><path fill="#64892F" d="M29.259 12.52c-.607-3.518-1.146-4.489-1.891-5.833a29.55 29.55 0 0 1-.805-1.525l1.924-.96c.271.56.518 1.006.748 1.421.818 1.476 1.464 2.639 2.133 6.524l-2.109.373z"/><path fill="#8CC63E" d="M26.563 5.465l2.208.171c.818 1.476-.182 2.998.487 6.883.001.001-1.95-5.71-2.695-7.054z"/><path fill="#8CC63E" d="M31.955 6.411c-2.501.228-4.966-.329-7.685-.943-3-.678-6.802-1.297-10.607-1.297-1.544 0-1.618-2.171-.075-2.171 4.912 0 8.021.643 11.149 1.348 3.746.847 6.769 1.554 9.918.231l.72 1.985a11.239 11.239 0 0 1-3.42.847z"/><ellipse transform="rotate(-19.78 34.925 4.608)" fill="#CEFF80" cx="34.927" cy="4.607" rx=".665" ry="1.066"/></svg>