<svg xmlns="http://www.w3.org/2000/svg" width="64" height="64" viewBox="0 0 64 64"><path fill="#E7A74F" d="M61.999 44.457C61.999 56.461 51.135 62 32.185 62 13.234 62 2.369 56.461 2.369 44.457c0-17.545 59.63-17.545 59.63 0z"/><path fill="#BA8443" d="M61.84 36.209c0 12.006-10.807 17.545-29.654 17.545-18.849 0-29.656-5.539-29.656-17.545 0-17.544 59.31-17.544 59.31 0z"/><path fill="#826046" d="M2.369 36.52c0-4.964 5.897-11.94 29.816-11.94s29.814 6.976 29.814 11.94c0 9.072-8.38 15.705-29.814 15.705-21.435 0-29.816-6.633-29.816-15.705z"/><path fill="#68472C" d="M3.026 31.287c0-4.965 5.766-11.94 29.158-11.94 23.393 0 29.157 6.976 29.157 11.94 0 9.072-8.195 15.706-29.157 15.706S3.026 40.358 3.026 31.287z"/><path fill="#EF4D3C" d="M3.153 24.841c1.448-3.024 5.106-3.195 17.15 1.946 12.043 5.141 14.322 7.847 12.875 10.871-2.647 5.531-9.679 9.6-20.471 4.992S.504 30.372 3.153 24.841z"/><path fill="#D33B23" d="M4.173 21.391c1.448-3.024 5.106-3.196 17.15 1.946 12.043 5.141 14.322 7.847 12.874 10.871-2.648 5.53-9.678 9.601-20.471 4.992C2.934 34.593 1.524 26.921 4.173 21.391z"/><path fill="#EF4D3C" d="M29.252 34.523c-.793-3.233 2.003-5.466 14.879-8.284 12.876-2.818 16.428-1.975 17.221 1.259 1.452 5.912-1.519 13.175-13.058 15.701-11.538 2.526-17.59-2.763-19.042-8.676z"/><path fill="#D33B23" d="M28.005 31.259c-.794-3.233 2.002-5.467 14.88-8.284 12.873-2.818 16.426-1.975 17.22 1.259 1.451 5.912-1.519 13.175-13.058 15.701-11.538 2.524-17.591-2.764-19.042-8.676z"/><path fill="#FFE62E" d="M9.678 30.924l20.07 19.185 19.511-19.185z"/><path fill="#8CC63E" d="M60.729 25.869s.856 3.393-.019 4.37c-.779.871-3.343-.073-4.4.703-.952.698-.716 3.389-1.867 3.997-1.056.556-3.208-1.116-4.412-.646-1.12.438-1.512 3.118-2.745 3.475-1.164.335-2.959-1.708-4.21-1.452-1.193.243-2.017 2.827-3.277 2.992-1.213.158-2.691-2.121-3.957-2.041-1.224.078-2.393 2.529-3.657 2.529-1.263 0-2.432-2.451-3.656-2.529-1.265-.08-2.745 2.2-3.957 2.041-1.261-.165-2.084-2.749-3.277-2.992-1.251-.256-3.049 1.787-4.213 1.451-1.233-.355-1.626-3.036-2.746-3.475-1.204-.471-3.356 1.201-4.412.645-1.153-.608-.916-3.3-1.868-3.998-1.06-.776-3.622.167-4.402-.704-.874-.977-.015-4.368-.015-4.368l57.09.002z"/><path fill="#E7A74F" d="M61.999 23.445c0 6.481-13.349 9.723-29.814 9.723-16.466 0-29.816-3.242-29.816-9.723C2.369 11.602 15.718 2 32.185 2c16.465 0 29.814 9.602 29.814 21.445z"/><path d="M16.261 14.449l-1.514 1.5-1.514-1.5 1.514-1.5 1.514 1.5zm7.464-2.465l-1.514 1.5-1.514-1.5 1.514-1.5 1.514 1.5zm4.235 6.849l-1.514 1.5-1.513-1.5 1.513-1.5 1.514 1.5zm5.232-5.384l-1.007 1-1.01-1 1.01-1 1.007 1zm18.757 3.884l-1.009 1-1.008-1 1.008-1 1.009 1zm6.129 1l-1.008 1-1.01-1 1.01-1 1.008 1zm-11.659-7.349l-1.009 1-1.009-1 1.009-1 1.009 1zm-30.526-1.25l-1.009 1-1.009-1 1.009-1 1.009 1zm-5.385 4.715l-1.009 1-1.009-1 1.009-1 1.009 1zm6.258 6.603l-1.009 1-1.01-1 1.01-1 1.009 1zM28.465 5.734l-1.009 1-1.01-1 1.01-1 1.009 1zm9.524-1l-1.009 1-1.008-1 1.008-1 1.009 1zm-15.778 2l-1.009 1-1.009-1 1.009-1 1.009 1zm28.663 2.375l-1.008 1-1.01-1 1.01-1 1.008 1zM40.008 21.673l-1.514 1.5-1.514-1.5 1.514-1.5 1.514 1.5zm-2.371-7.689l-1.513 1.5-1.515-1.5 1.515-1.5 1.513 1.5zm5.578-5.75l-1.514 1.5-1.513-1.5 1.513-1.5 1.514 1.5zm4.361 6.418l-1.513 1.5-1.514-1.5 1.514-1.5 1.513 1.5zm6.392-2.168l-1.514 1.5-1.514-1.5 1.514-1.5 1.514 1.5zm-4.878 8.784l-1.513 1.5-1.514-1.5 1.514-1.5 1.513 1.5zm-36.564-2.595l-1.513 1.5-1.514-1.5 1.514-1.5 1.513 1.5z" fill="#FFC17A"/></svg>