<svg xmlns="http://www.w3.org/2000/svg" width="64" height="64" viewBox="0 0 64 64"><path fill="#FFC861" d="M20.3 45.258l2.287 12.768h.012C22.671 60.805 26.524 62 33.511 62c6.984 0 10.84-1.195 10.91-3.975h.014l2.283-12.768H20.3z"/><path fill="#B17F4A" d="M20.362 45.602s3.158 2.294 13.205 2.294c10.045 0 13.09-2.294 13.09-2.294H20.362z"/><path fill="#FFC861" d="M16.511 34.99l1 8.076h.016c.094 2.777 6.795 3.975 15.984 3.975 9.188 0 15.889-1.197 15.982-3.975h.018l1-8.076h-34z"/><path fill="#B17F4A" d="M17.115 39.873c.002.002 3.679 3.588 16.396 3.588 12.713 0 16.51-4.323 16.51-4.323l-32.906.735z"/><path fill="#FFE0B5" d="M20.846 11.955c-8.072 0-16.186 13.14-6.27 23.318C14.576 42 23.821 42 33.704 42c13.624 0 18.034-3.91 18.034-3.91L20.846 11.955z"/><path fill="#8F6453" d="M50.498 28.456c.884-2.008 1.924-6.479-.226-9.665-2.766-4.104-6.39-5-9.613-7.238-1.752-1.217-4.808-4.562-.59-7.506 0 0-8.917-5.799-15.88 2.123-2.026 2.307-3.084 4.696-3.629 6.758C7.851 16.84 9.729 40.08 28.442 35.461c-15.295-.439-13.298-15.416-8.082-21.707-.585 2.79-.246 4.794-.246 4.794-2.283 5.731-.143 12.672 5.072 15.504 1.015.551 2.114.993 3.245 1.377l.011.032s-7.15 3.471-12.738.521l.001.001c3.593 5.345 9.901 2.11 13.234 2.175 3.638.07 2.515 3.313 10.773 1.312 6.083-1.478 7.973-2.589 12.025-1.38.001 0 5.836-5.517-1.239-9.634z"/><path fill="#FFE0B5" d="M40.069 4.047C20.216-.941 17.32 22.686 30.093 27.497c2.182.409 4.306.296 6.396.038C23.535 24.841 22.927 5.581 35.101 4.58c-10.68 6.309-4.419 22.195 7.548 22.195-9.912-5.944-11.5-16.879-5.294-21.066-6.262 13.95 9.45 11.967 13.148 22.933 2.228-14.525-17.081-10.273-10.434-24.595z"/><path fill="#FFE0B5" d="M20.146 18.791c1.409 5.78 7.047 10.435 13.558 10.435 7.099 0 12.86-2.64 18.375 4.826-7.445-3.757-11.649-1.332-18.64-1.332-8.27 0-14.841-6.709-13.293-13.929z"/><path fill="#E3A93D" d="M21.698 47.622l2.958.815.17 1.451-2.83-.336 3.775.715-.201-1.912zm4.893.877l2.982.536.075 1.439-2.882-.068 3.822.358-.076-1.898zm4.95.415l2.983.256-.02 1.437-2.912.204h3.838l.05-1.897zm4.969-.048l2.956-.02-.115 1.443-2.917.475 3.822-.358.175-1.907zm4.941-.511l2.906-.296-.209 1.459-2.897.749 3.774-.715.298-1.93zm-19.39 1.617l2.869.798.169 1.45-2.741-.32 3.657.693-.201-1.91zm4.743.85l2.89.527.077 1.438-2.792-.058 3.701.346-.076-1.897zm4.799.403l2.889.255-.019 1.437-2.821.203h3.717l.05-1.895zm4.814-.047l2.864-.013-.114 1.443-2.825.467 3.701-.346.175-1.907zm4.79-.495l2.815-.28-.207 1.458-2.808.732 3.656-.693.298-1.928zm-18.783 1.639l2.777.776.17 1.454-2.649-.302 3.537.67-.199-1.908zm4.594.824l2.797.513.077 1.443-2.701-.05 3.581.335-.075-1.896zm4.645.39l2.798.252-.019 1.439-2.73.205h3.598l.048-1.896zm4.661-.045l2.775-.009-.116 1.446-2.734.459 3.58-.335.175-1.906zm4.638-.479l2.726-.268-.209 1.462-2.716.714 3.537-.67.298-1.928zm-18.175 1.66l2.688.76.17 1.451-2.56-.281 3.418.647-.2-1.911zm4.442.796l2.709.506.074 1.439-2.608-.037 3.46.324-.075-1.899zm4.495.377l2.706.253-.019 1.436-2.639.208h3.477l.049-1.897zm4.508-.044l2.682.002-.113 1.442-2.644.455 3.46-.324.175-1.908zm4.487-.463l2.635-.249-.208 1.458-2.627.702 3.418-.647.297-1.93zm-17.57 1.683l2.599.744.17 1.45-2.471-.266 3.3.625-.2-1.91zm4.293.769l2.617.498.075 1.44-2.517-.031 3.34.313-.076-1.899zm4.342.364l2.614.253-.018 1.437-2.547.207h3.355l.049-1.897zm4.357-.043l2.59.012-.115 1.442-2.552.445 3.34-.313.175-1.907zm4.334-.447l2.545-.23-.208 1.458-2.538.682 3.3-.625.298-1.928z"/></svg>