<svg xmlns="http://www.w3.org/2000/svg" width="64" height="64" viewBox="0 0 64 64"><ellipse fill="#C1C9CB" cx="31.999" cy="57.775" rx="14.445" ry="4.225"/><path fill="#ACAFB5" d="M37.165 55.656c3.515 3.345-13.848 3.345-10.333 0 5.399-5.14 5.167-31.409 5.167-31.409s-.102 26.396 5.166 31.409z"/><path fill-rule="evenodd" clip-rule="evenodd" fill="#839391" d="M23.184 18.106S13.096 6.652 12.173 5.487c-.956-1.206-3.106-3.288-5.753-3.288-5.955 0-5.834 3.974 0 4.243 3.793.177 13.721 13.991 13.721 13.991l3.043-2.327z"/><path fill="#839391" d="M59.562 27.154l.002.541-.002-.541z"/><path fill="#DFE9EB" d="M61.999 25.835c0 15.595-13.432 23.865-30 23.865-16.57 0-30-8.27-30-23.865 0-10.588 13.432-14.476 30-14.476s30 3.889 30 14.476z"/><ellipse fill="#FF78B5" cx="31.999" cy="16.25" rx="14.979" ry="14.249"/><ellipse fill="#BEDD4B" cx="44.369" cy="26.388" rx="14.979" ry="14.25"/><ellipse fill="#9B5C54" cx="19.629" cy="26.388" rx="14.979" ry="14.25"/><path fill="#DFE9EB" d="M58.999 18.388v5.219c0 7.188-12.088 10.362-27 10.362-14.91 0-27-3.173-27-10.362v-5.219c-1.92 1.989-3 4.448-3 7.447 0 15.595 13.43 23.865 30 23.865 16.568 0 30-8.27 30-23.865 0-2.999-1.078-5.458-3-7.447z"/><path fill="#FFF" d="M60.827 27.909c.102 1.074-.432 2.149-1.131 2.975-.703.843-1.568 1.525-2.465 2.132-1.817 1.19-3.805 2.063-5.832 2.769-4.064 1.412-8.313 2.143-12.566 2.517-4.262.328-8.549.265-12.779-.256-4.229-.509-8.412-1.44-12.379-2.933 4.179.687 8.34 1.166 12.512 1.378 4.168.195 8.341.172 12.484-.182 4.143-.325 8.267-.95 12.269-2.01 1.989-.554 3.968-1.194 5.799-2.125.92-.455 1.794-1.001 2.561-1.672.75-.67 1.408-1.526 1.527-2.593z"/><path opacity=".3" d="M24.876 21.757l1.5-1.5 1.5 1.501-1.5 1.5zm-1.456-4.029l1-.999 1 1.001-1 1zm4.884 2.25l1-1 1 1.002-1 1zm-1.426 5.626l1-1 1 1.001-1 1zm-6.562-1.845l1-1 1 1.001-1 1zm7.56-5.531l.5-.498.5.5-.5.5zm-7.291-2.875l.5-.499.5.502-.5.498zm-.5 1.375l.5-.499.5.502-.5.498zm8.716 6.53l.5-.499.5.502-.5.498zm-6.988 2.001l.5-.5.5.502-.5.499zm4.563 2.649l.5-.499.5.502-.5.498zM48.9 22.302l1.5-1.5 1.5 1.502-1.5 1.499zm-1.455-4.03l1-1 1 1.002-1 1zm-5.688-2.665l1-1 1 1.001-1 1zm3.223 12.8l1.001-1 1 1.002-1 .999zm7.348-7.884l1-1 1 1.002-1 .999zm-6.865.985l1-1 1 1.001-1 1zm6.438-2.733l.5-.499.5.501-.5.499zm-3.959-3.666l.5-.499.5.501-.5.499zm4.883 8.696l.5-.499.5.501-.5.499zm-5.848 2.584l.5-.499.5.501-.5.5zm-4.222-8.002l.5-.498.5.5-.5.5zM48.4 28.672l.5-.499.5.501-.5.5zM33.806 6.263l1-1 1 1.002-1 1zm1.152 2.989l1-1 1 1.001-1 1zm-2.152 3.375l1-1 1 1.001-1 1zm3.6-7.002l.5-.498.5.5-.5.5zm2.507 2.095l.5-.498.5.501-.5.499zm-5.609.5l.5-.499.5.502-.5.498zm-1 2.533l.5-.499.5.501-.5.5zm-3.502-5.489l.5-.499.5.502-.5.498zm3.002-1l.5-.499.5.502-.5.498z" fill-rule="evenodd" clip-rule="evenodd" fill="#FFF"/></svg>