<svg xmlns="http://www.w3.org/2000/svg" width="64" height="64" viewBox="0 0 64 64"><path fill="#FFE62E" d="M12.907 8.358c-.656-.106-1.548-1.75-3.898-4.102C6.188 1.438 4.22 1.595 2.907 2.909c-1.312 1.311-1.47 3.28 1.35 6.1 2.351 2.351 3.995 3.242 4.101 3.898.587 3.678-1.812 7.077-.35 8.539L21.445 8.008c-1.462-1.461-4.862.938-8.538.35z"/><path fill="#B4D7EE" d="M60.986 39.57a3.461 3.461 0 0 1-.001 4.896l-16.52 16.52a3.46 3.46 0 0 1-4.895 0L12.807 34.223a3.46 3.46 0 0 1 0-4.895l16.521-16.521a3.463 3.463 0 0 1 4.896 0L60.986 39.57z"/><path fill="#FFF" d="M56.534 40.139a2.652 2.652 0 0 1 0 3.748L43.886 56.533a2.649 2.649 0 0 1-3.747 0l-18.311-18.31 32.792.002 1.914 1.914z"/><path d="M16.442 32.838l6.342-6.343 1.714 1.714-6.343 6.342zm4.499 4.501l6.343-6.343 1.713 1.713-6.343 6.343zm4.501 4.499l6.342-6.343 1.713 1.713-6.342 6.344zm4.5 4.499l6.344-6.342 1.712 1.713-6.343 6.341zm4.505 4.502l6.342-6.343 1.713 1.714-6.341 6.342zm4.5 4.499l6.343-6.342 1.713 1.713-6.343 6.342zM6.699 25.356c-1.533-1.533-.423-2.906 1.11-4.439L20.917 7.809c1.532-1.533 2.906-2.642 4.438-1.109l3.374 3.375c1.532 1.532.426 2.906-1.108 4.438L14.514 27.621c-1.533 1.534-2.908 2.642-4.44 1.11l-3.375-3.375z" fill="#2090BC"/><path d="M6.727 23.448l.764-.765 5.234 5.228-.764.765zM22.924 7.249l.762-.762 5.23 5.23-.762.762zm-2.699 2.699l.764-.764 5.23 5.23-.764.764zm-2.698 2.698l.764-.763 5.227 5.234-.763.763zm-2.701 2.7l.762-.762 5.23 5.23-.761.762zm-2.696 2.698l.763-.762 5.228 5.234-.764.762zm-2.705 2.702l.764-.764 5.231 5.231-.764.764z" fill="#095972"/></svg>