<svg xmlns="http://www.w3.org/2000/svg" width="64" height="64" viewBox="0 0 64 64"><path fill="#FFC200" d="M33.943 31.767a1.942 1.942 0 1 1-3.886 0h-.869c0 1.554 1.258 2.813 2.813 2.813s2.813-1.259 2.813-2.813h-.871z"/><path fill="#E68A00" d="M33 37.279h-2V33.32c0-1.552 2-1.552 2 0v3.959z"/><ellipse fill="#E68A00" cx="32" cy="48.5" rx="13.5" ry="13.5"/><ellipse fill="#FFC200" cx="32" cy="48.5" rx="12.5" ry="12.5"/><path fill="#E68A00" d="M30.26 46.242l-1.744-2.393-7.789 1.129 5.642 1.826zm3.48 0l1.744-2.393-3.482-7.036v5.914zm1.078 3.297l2.821.914 5.636-5.475-5.64 1.826zm-2.816 2.039v2.959l6.967 3.65-3.487-4.783zm-2.818-2.039l-2.819.914-1.332 7.734 3.487-4.783z"/><path fill="#FFE394" d="M32.002 42.727v-5.914l-3.486 7.036 1.744 2.393zm5.633 4.077l5.64-1.826-7.791-1.129-1.744 2.393zm-2.817 2.735l.664 3.865 3.487 4.783-1.33-7.734zm-6.298 3.865l-3.487 4.783 6.969-3.65v-2.959zm-2.151-6.6l-5.642-1.826 5.638 5.475 2.819-.914z"/><path d="M22 28.239l2.27 3.745H27V2h-5zM37 2v29.984h2.732L42 28.239V2z" fill="#F3F7FA"/><path d="M17 19.992h.005L22 28.239V2h-5zM27 2h10v29.984H27zm15 0v26.239l4.995-8.247H47V2z" fill="#42ADE2"/><path fill="#D3976E" d="M23 30.06h18v1H23z"/><path fill="#89664C" d="M23.002 31.06h18v1h-18z"/></svg>