<svg xmlns="http://www.w3.org/2000/svg" width="64" height="64" viewBox="0 0 64 64"><g fill="#3E4347"><path d="M26.5 43v20s.646 1 1 1 1-1 1-1V43h-2zm5 0h-1v20s.646 1 1 1 1-1 1-1V43h-1zm3 0v20s.646 1 1 1 1-1 1-1V43h-2z"/><path d="M23 51h17v2H23zm0-4h17v2H23zm0 8h17v2H23zm0 4h17v2H23z"/></g><path fill="#3E4347" d="M12.5 11c0 .55-.45 1-1 1s-1-.45-1-1V1c0-.55.45-1 1-1s1 .45 1 1v10zm20 0c0 .55-.45 1-1 1s-1-.45-1-1V1c0-.55.45-1 1-1s1 .45 1 1v10zm20 0c0 .55-.45 1-1 1s-1-.45-1-1V1c0-.55.45-1 1-1s1 .45 1 1v10z"/><path fill="#B2C1C0" d="M22 22h18v16H22zM6 18h10v20H6zm40 0h10v20H46z"/><path fill="#42ADE2" d="M31.5 10l-12 12h24zm-20 0l-8 8h16zm40 0l-8 8h16z"/><circle fill="#3E4347" cx="31.5" cy="29" r="3"/><path fill="#3E4347" d="M28.5 29h6v9h-6z"/><path fill="#DAE3EA" d="M57.5 32h-4c-.55 0-1 .45-1 1v4c0 .55-.45 1-1 1h-4c-.55 0-1-.45-1-1v-4c0-.55-.45-1-1-1h-4c-.55 0-1 .45-1 1v4c0 .55-.45 1-1 1h-4c-.55 0-1-.45-1-1v-4c0-.55-.45-1-1-1h-4c-.55 0-1 .45-1 1v4c0 .55-.45 1-1 1h-4c-.55 0-1-.45-1-1v-4c0-.55-.45-1-1-1h-4c-.55 0-1 .45-1 1v4c0 .55-.45 1-1 1h-4c-.55 0-1-.45-1-1v-4c0-.55-.45-1-1-1h-4c-.55 0-1 .45-1 1v4c0 .55.318 1.318.707 1.707l.586.586c.389.389.707 1.157.707 1.707v22c0 .55.45 1 1 1h16V52a8 8 0 0 1 16 0v12h16c.55 0 1-.45 1-1V41c0-.55.318-1.318.707-1.707l.586-.586c.389-.389.707-1.157.707-1.707v-4c0-.55-.45-1-1-1z"/><path fill="#3E4347" d="M9.5 22h4v6h-4z"/><circle fill="#3E4347" cx="11.5" cy="22" r="2"/><path fill="#3E4347" d="M49.5 22h4v6h-4z"/><circle fill="#3E4347" cx="51.5" cy="22" r="2"/><path fill="#B2C1C0" d="M10 44H6c-.55 0-1 .45-1 1v2c0 .55.45 1 1 1h4c.55 0 1-.45 1-1v-2c0-.55-.45-1-1-1z"/><path fill="#42ADE2" d="M20.5 6.557c-2.667-1.533-5.333 1.535-8 0V1.444c2.667 1.533 5.333-1.535 8 0-.667.469-1.333 1.225-2 2.125a17.837 17.837 0 0 1 2 2.988zm20 0c-2.666-1.533-5.334 1.535-8 0V1.444c2.666 1.533 5.334-1.535 8 0-.666.469-1.334 1.225-2 2.125a17.837 17.837 0 0 1 2 2.988zm20 0c-2.666-1.533-5.334 1.535-8 0V1.444c2.666 1.533 5.334-1.535 8 0-.666.469-1.334 1.225-2 2.125a17.837 17.837 0 0 1 2 2.988z"/><path fill="#B2C1C0" d="M13 50H9c-.55 0-1 .45-1 1v2c0 .55.45 1 1 1h4c.55 0 1-.45 1-1v-2c0-.55-.45-1-1-1zm8.792 10h-4c-.55 0-1 .45-1 1v2c0 .55.45 1 1 1h4c.55 0 1-.45 1-1v-2c0-.55-.45-1-1-1zm-2.104-5h-4c-.55 0-1 .45-1 1v2c0 .55.45 1 1 1h4c.55 0 1-.45 1-1v-2c0-.55-.451-1-1-1zm2.104-8h-4c-.55 0-1 .45-1 1v2c0 .55.45 1 1 1h4c.55 0 1-.45 1-1v-2c0-.55-.45-1-1-1zM19 39.93h-4c-.55 0-1 .45-1 1v2c0 .55.45 1 1 1h4c.55 0 1-.45 1-1v-2c0-.55-.45-1-1-1zM10 56H6c-.55 0-1 .45-1 1v2c0 .55.45 1 1 1h4c.55 0 1-.45 1-1v-2c0-.55-.45-1-1-1zm47-6h-4c-.55 0-1 .45-1 1v2c0 .55.45 1 1 1h4c.55 0 1-.45 1-1v-2c0-.55-.45-1-1-1zm-3 6h-4c-.55 0-1 .45-1 1v2c0 .55.45 1 1 1h4c.55 0 1-.45 1-1v-2c0-.55-.45-1-1-1zm-4.5-11.305h-4c-.55 0-1 .45-1 1v2c0 .55.45 1 1 1h4c.55 0 1-.45 1-1v-2c0-.549-.45-1-1-1zm-4 6.805h-4c-.55 0-1 .45-1 1v2c0 .55.45 1 1 1h4c.55 0 1-.45 1-1v-2c0-.55-.45-1-1-1zm1.875 8.5h-4c-.55 0-1 .45-1 1v2c0 .55.45 1 1 1h4c.55 0 1-.45 1-1v-2c0-.55-.45-1-1-1zM56.5 39.18h-4c-.55 0-1 .45-1 1v2c0 .55.45 1 1 1h4c.55 0 1-.45 1-1v-2c0-.55-.45-1-1-1zm-15.5 1h-4c-.55 0-1 .45-1 1v2c0 .55.45 1 1 1h4c.55 0 1-.45 1-1v-2c0-.55-.45-1-1-1z"/><path fill="#E8E8E8" d="M13.5 27.875h-4c-.55 0-1 .45-1 1v.25c0 .55.45 1 1 1h4c.55 0 1-.45 1-1v-.25c0-.55-.45-1-1-1zm40 0h-4c-.55 0-1 .45-1 1v.25c0 .55.45 1 1 1h4c.55 0 1-.45 1-1v-.25c0-.55-.45-1-1-1z"/></svg>