<svg xmlns="http://www.w3.org/2000/svg" width="64" height="64" viewBox="0 0 64 64"><path d="M18.136 22.069c-5.644 1.513-9.088 6.96-8.091 10.681s4.765-.518 10.409-2.03c5.644-1.513 11.026.274 10.029-3.446s-6.703-6.717-12.347-5.205zm-4.369-1.733c1.701-.618 1.918-4.311 1.012-6.801-.906-2.488-3.02-4.005-4.72-3.386s-2.345 3.139-1.438 5.628 3.444 5.178 5.146 4.559zm6.939-1.922c1.803-.158 2.968-3.669 2.737-6.309-.231-2.639-1.88-4.649-3.683-4.492-1.803.158-3.077 2.426-2.847 5.064.233 2.639 1.989 5.894 3.793 5.737zm7.972-7.724c-1.81 0-3.276 2.147-3.276 4.796 0 2.649 1.467 6.045 3.276 6.045s3.277-3.396 3.277-6.045c0-2.648-1.467-4.796-3.277-4.796zM3.317 17.486c-1.567.904-1.765 3.498-.439 5.792 1.324 2.294 4.293 4.501 5.859 3.597 1.568-.905 1.141-4.58-.184-6.874s-3.668-3.42-5.236-2.515zm42.547 26.74c-5.645-1.513-11.351 1.483-12.348 5.204s4.386 1.934 10.029 3.446c5.645 1.513 9.412 5.751 10.409 2.03s-2.446-9.168-8.09-10.68zm4.369-1.733c1.7.618 4.24-2.07 5.146-4.56s.262-5.009-1.438-5.628c-1.701-.618-3.813.897-4.72 3.387s-.689 6.182 1.012 6.801zm-6.939-1.923c1.804.157 3.561-3.098 3.792-5.736.23-2.639-1.044-4.906-2.847-5.064-1.803-.157-3.451 1.854-3.683 4.493-.23 2.638.935 6.149 2.738 6.307zm-7.972 3.118c1.81 0 3.276-3.395 3.276-6.045 0-2.648-1.467-4.795-3.276-4.795-1.811 0-3.277 2.146-3.277 4.796 0 2.648 1.468 6.044 3.277 6.044zm25.361-4.045c-1.567-.905-3.912.221-5.236 2.516-1.324 2.293-1.752 5.968-.185 6.873 1.567.904 4.536-1.303 5.86-3.597s1.128-4.888-.439-5.792z" fill="#42ADE2"/></svg>