<svg xmlns="http://www.w3.org/2000/svg" width="64" height="64" viewBox="0 0 64 64"><path fill="#FF5A79" d="M61.072 18.16c-6.396-16.918-27.154-9.328-29.074-.879-2.642-9.004-22.89-15.72-29.07.891C-3.953 36.674 29.598 53.279 31.999 56c2.397-2.162 35.952-19.639 29.073-37.84z"/><path fill="#FFF" d="M53.831 13.275L51.193 8l-2.638 5.275-5.273 2.637 5.273 2.636 2.638 5.276 2.638-5.276 5.274-2.636zM16.252 26.753l-3.562-7.128-3.566 7.128L2 30.314l7.124 3.563 3.566 7.129 3.562-7.129 7.127-3.563zm32.473 15.685l-2.873-5.75-2.877 5.75-5.746 2.873 5.746 2.871 2.877 5.75 2.873-5.75 5.748-2.871zM18.88 20.653l3-3 3 3-3 3zm4.5 20.907l2.5-2.501 2.5 2.5-2.5 2.5zm15.902-14.245l3-3 3 3-3 3z"/></svg>