<svg xmlns="http://www.w3.org/2000/svg" width="64" height="64" viewBox="0 0 64 64"><path fill="#F8DB7D" d="M8.344.91a3.132 3.132 0 0 1 4.414 0l50.333 50.332a3.131 3.131 0 0 1 0 4.415l-7.433 7.433a3.13 3.13 0 0 1-4.414 0L.911 12.756a3.133 3.133 0 0 1 0-4.415L8.344.91z"/><path d="M38.326 40.729C22.199 24.602 9.793 10.861 10.615 10.039c.234-.234 1.52.608 3.607 2.301-3.177-3.298-6.014-6.344-8.35-8.96L3.068 6.185c4.463 4.019 10.005 9.292 15.898 15.184C32.579 34.982 42.9 46.73 42.02 47.611c-.88.88-12.629-9.441-26.242-23.055C9.9 18.679 4.638 13.151.625 8.693c-.907 1.219-.819 2.958.286 4.063l25.978 25.979c1.464-1.051 10.186 5.646 19.672 15.133 3.348 3.35 6.35 6.604 8.786 9.477.105-.081.215-.157.312-.253l2.912-2.913c-5.458-4.964-12.579-11.784-20.245-19.45zM8.344.911l-.23.229c4.234 3.782 9.601 8.875 15.327 14.601C36.059 28.358 45.622 39.25 44.803 40.07c-.211.209-1.086-.268-2.48-1.299 7.25 7.274 13.689 14.01 18.432 19.223l2.336-2.336c.064-.064.113-.14.169-.208a349.453 349.453 0 0 1-5.398-5.29c-7.723-7.723-13.659-14.307-13.259-14.707.4-.398 6.984 5.537 14.707 13.26a374.27 374.27 0 0 1 4.688 4.775 3.11 3.11 0 0 0-.907-2.245L12.758.911a3.13 3.13 0 0 0-4.414 0z" fill="#EBC463"/><path d="M6.353 11.094L4.747 9.49l8.29-8.3 1.607 1.604zm7.356-.938L12.105 8.55l4.147-4.147 1.605 1.604zm3.211 3.21l-1.605-1.605 4.148-4.147 1.605 1.604zm3.209 3.212l-1.605-1.606 4.148-4.146 1.605 1.606zm-.936 7.356l-1.605-1.605 8.297-8.29 1.605 1.605zm7.362-.932l-1.607-1.604 4.146-4.152L30.7 18.85zm3.206 3.208l-1.604-1.606 4.148-4.145 1.605 1.606zm3.212 3.21l-1.605-1.605 4.148-4.145 1.605 1.605zm-.93 7.363l-1.608-1.606 8.29-8.3 1.608 1.606zm7.352-.94l-1.605-1.605 4.15-4.147 1.604 1.606zm3.216 3.212l-1.606-1.605 4.146-4.148 1.606 1.605zm3.206 3.211l-1.605-1.606 4.148-4.146 1.605 1.606zm-.94 7.356l-1.604-1.606 8.3-8.29 1.603 1.606zm7.361-.931l-1.607-1.603 4.144-4.154 1.607 1.603zm3.209 3.207l-1.604-1.606 4.149-4.144 1.604 1.606zm3.215 3.212l-1.604-1.605 4.147-4.147 1.604 1.604z" fill="#89664C"/><circle fill="#89664C" cx="10.404" cy="13.235" r="2.601"/><circle fill="#FFF" cx="10.772" cy="13.603" r="2.4"/><circle fill="#89664C" cx="21.989" cy="24.821" r="2.601"/><circle fill="#FFF" cx="22.357" cy="25.188" r="2.4"/><circle fill="#89664C" cx="49.282" cy="52.114" r="2.601"/><circle fill="#FFF" cx="49.65" cy="52.482" r="2.4"/></svg>