<svg xmlns="http://www.w3.org/2000/svg" width="64" height="64" viewBox="0 0 64 64"><path fill="#3E4347" d="M41.196 3.441L28.313 60.124l26.497-7.347c3.038-.866 4.822-4.031 3.983-7.068L48.214 7.369a5.651 5.651 0 0 0-7.018-3.928z"/><path fill="#E9F3FA" d="M39.01 2.844l-10.697 57.28 26.278-8.548c3-.992 4.654-4.229 3.695-7.227L46.18 6.479a5.647 5.647 0 0 0-7.17-3.635z"/><path fill="#C28FEF" d="M37.124 2.357l-25.498 9.437 17.233 48.153 25.498-9.438c2.965-1.098 4.507-4.391 3.448-7.354L44.413 5.737c-1.06-2.964-4.324-4.476-7.289-3.38z"/><path d="M23.754 12.382l-1.456 3.31-3.209-1.583 1.457-3.309 3.208 1.582zm9.329-3.453l-1.455 3.31-3.209-1.584 1.457-3.309 3.207 1.583zm9.333-3.454l-1.457 3.31-3.208-1.583 1.455-3.31 3.21 1.583zM20.841 19.003l-1.457 3.309-3.208-1.582 1.457-3.311 3.208 1.584zm9.33-3.454l-1.457 3.309-3.209-1.582 1.459-3.311 3.207 1.584zm9.33-3.454l-1.456 3.31-3.21-1.583 1.459-3.31 3.207 1.583zM27.257 22.169l-1.456 3.31-3.209-1.584 1.458-3.309 3.207 1.583zm18.662-6.907l-1.459 3.31-3.208-1.583 1.458-3.31 3.209 1.583zM24.343 28.788l-1.455 3.311-3.21-1.583 1.458-3.311 3.207 1.583zm9.33-3.454l-1.456 3.312-3.209-1.585 1.457-3.31 3.208 1.583zm9.33-3.451l-1.455 3.308-3.209-1.582 1.457-3.31 3.207 1.584zM30.759 31.955l-1.455 3.311-3.21-1.584 1.458-3.309 3.207 1.582zm9.33-3.453l-1.455 3.31-3.209-1.583 1.457-3.311 3.207 1.584zm9.332-3.455l-1.458 3.312-3.208-1.585 1.457-3.31 3.209 1.583zM27.845 38.574l-1.457 3.309-3.207-1.58 1.457-3.311 3.207 1.582zm9.33-3.453l-1.455 3.311-3.21-1.584 1.459-3.31 3.206 1.583zm9.331-3.453l-1.456 3.311-3.209-1.584 1.457-3.309 3.208 1.582zM34.263 41.742l-1.457 3.308-3.208-1.581 1.457-3.311 3.208 1.584zm9.33-3.455l-1.457 3.31-3.209-1.582 1.459-3.31 3.207 1.582zm9.33-3.453l-1.457 3.311-3.209-1.584 1.457-3.31 3.209 1.583zM31.349 48.362l-1.459 3.309-3.206-1.582 1.455-3.312 3.21 1.585zm9.33-3.454l-1.456 3.31-3.209-1.582 1.458-3.312 3.207 1.584zm9.329-3.453l-1.456 3.309-3.209-1.582 1.458-3.311 3.207 1.584zM37.765 51.529l-1.455 3.309-3.211-1.584 1.459-3.31 3.207 1.585zm9.33-3.453l-1.456 3.307-3.209-1.582 1.458-3.311 3.207 1.586zm9.33-3.455l-1.457 3.309-3.209-1.582 1.458-3.311 3.208 1.584z" fill="#A67ACC"/><path fill="#3E4347" d="M7.601 13.285c-2.965 1.098-3.04 2.833-1.979 5.797l14.351 40.102c1.063 2.965 1.896 3.352 4.861 2.254l4.024-1.49-17.232-48.154-4.025 1.491z"/><path fill="#FFF" d="M41.501 21.444l-15.794 5.848-2.243-6.266 15.795-5.846z"/></svg>