<svg xmlns="http://www.w3.org/2000/svg" width="64" height="64" viewBox="0 0 64 64"><path fill="#FFCE31" d="M.687 61.83C-.507 63.024-.102 64 1.586 64h59.345a3.079 3.079 0 0 0 3.07-3.069V1.585c0-1.688-.979-2.093-2.171-.899L.687 61.83zm49.145-15.069a3.078 3.078 0 0 1-3.069 3.069h-10.96c-1.688 0-2.092-.977-.899-2.17L47.66 34.904c1.194-1.192 2.172-.789 2.172.899v10.958z"/><path d="M2.373 61.334h1.006V64H2.373zm2.974 0h1.005V64H5.347zm2.976 0h1.005V64H8.323zm2.973-2.346h1.006V64h-1.006zm3.142 2.346h1.006V64h-1.006zm2.975 0h1.006V64h-1.006zm2.975 0h1.006V64h-1.006zm2.975-2.346h1.005V64h-1.005zm3.141 2.346h1.005V64h-1.005zm2.975 0h1.006V64h-1.006zm2.974 0h1.007V64h-1.007zm2.977-2.346h1.005V64H35.43zm3.14 2.346h1.006V64H38.57zm2.975 0h1.007V64h-1.007zm2.976 0h1.005V64h-1.005zm2.975-2.346h1.005V64h-1.005zm3.141 2.346h1.006V64h-1.006zm2.974 0h1.006V64h-1.006zm2.975 0h1.005V64h-1.005zm2.976-2.346h1.006V64h-1.006z" fill="#89664C"/></svg>