<svg xmlns="http://www.w3.org/2000/svg" width="64" height="64" viewBox="0 0 64 64"><path d="M29 51.098h6V58h-6zM29 6h6v6.902h-6zm22.098 23H58v6h-6.902zM6 29h6.902v6H6zm9.736 23.506l-4.242-4.242 4.881-4.88 4.242 4.241zm32.528-41.012l4.242 4.241-4.88 4.88-4.243-4.241zm-.003 41.013l-4.88-4.88 4.24-4.242 4.882 4.88zM15.736 11.494l4.881 4.88-4.242 4.243-4.88-4.881zM32 17c-8.284 0-15 6.716-15 15s6.716 15 15 15 15-6.716 15-15-6.716-15-15-15zm0 25c-5.522 0-10-4.477-10-10s4.478-10 10-10 10 4.477 10 10-4.478 10-10 10z" fill="#EDA454"/></svg>