<svg xmlns="http://www.w3.org/2000/svg" width="64" height="64" viewBox="0 0 64 64"><path fill="#DAE3EA" d="M38.667 47.484H25.333L24 44h16z"/><path fill="#ED4C5C" d="M38.667 48.167H25.333C23.624 54.437 21.177 58.984 16 64h7.742s2.739-9.5 8.258-9.5 8.258 9.5 8.258 9.5H48c-5.177-5.016-7.624-9.563-9.333-15.833z"/><g fill="#DAE3EA"><path d="M18 25.653c0 .913-.74 1.653-1.653 1.653H1.653a1.653 1.653 0 1 1 0-3.306h14.693c.914 0 1.654.74 1.654 1.653z"/><path d="M24.51 22.347c0 .913-.74 1.653-1.653 1.653H8.163a1.653 1.653 0 1 1 0-3.306h14.693a1.652 1.652 0 0 1 1.654 1.653zM64 40.667c0 .913-.74 1.653-1.653 1.653H47.653a1.653 1.653 0 1 1 0-3.306h14.693c.914 0 1.654.74 1.654 1.653zm-3.833-3.307c0 .913-.74 1.653-1.653 1.653H43.82a1.653 1.653 0 1 1 0-3.306h14.693c.914 0 1.654.74 1.654 1.653z"/></g><path fill="#ED4C5C" d="M37.518 43.317H26.482l1.569-5.635h7.898z"/><path fill="#DAE3EA" d="M35.854 36.999h-7.708l.778-7h5.968z"/><path fill="#ED4C5C" d="M34.983 29.999h-5.966l.812-6.791h4.342z"/><path fill="#DAE3EA" d="M28.403 19.643h7.193v2.883h-7.193zm0-4.654h7.193v1.77h-7.193z"/><path fill="#ED4C5C" d="M28.403 13.608h7.193v1.381h-7.193z"/><path fill="#C94747" d="M30.683 8.214h2.635v5.394h-2.635z"/><path fill="#DAE3EA" d="M30.683 1.461h2.635v6.753h-2.635z"/><path fill="#ED4C5C" d="M30.683 0h2.635v1.461h-2.635z"/><path fill="#C5D0D8" d="M29.979 16.759h4.041v2.884h-4.041zm-1.709 13.24h7.461v.683H28.27z"/><path fill="#B2C1C0" d="M30.683 7.532h2.635v.683h-2.635zm-2.28 14.311h7.193v.683h-7.193zm-.133 8.839h7.461v.683H28.27zm-.219 2.105h7.898v.683h-7.898zm-.375 2.107h8.648v.683h-8.648z"/><path fill="#C5D0D8" d="M28.051 32.104h7.898v.683h-7.898zm-.375 2.107h8.648v.683h-8.648zm-.317 2.105h9.281v.683h-9.281z"/><path fill="#C94747" d="M25.333 47.484h13.334v.683H25.333zm4.496-24.959h4.342v.683h-4.342zm-.256 20.98h-1.281v-3.346a.641.641 0 0 1 1.282 0v3.346zm2.045 0h-1.281v-3.346a.641.641 0 0 1 1.282 0v3.346zm2.045 0h-1.281v-3.346a.641.641 0 0 1 1.282 0v3.346zm2.045 0h-1.281v-3.346a.641.641 0 0 1 1.282 0v3.346zM31.568 29.999h-1.281v-3.346a.641.641 0 0 1 1.282 0v3.346zm2.145 0h-1.281v-3.346a.641.641 0 0 1 1.282 0v3.346z"/><path fill="#B2C1C0" d="M24 43.317h16V44H24z"/></svg>