<svg xmlns="http://www.w3.org/2000/svg" width="64" height="64" viewBox="0 0 64 64"><path fill="#83BF4F" d="M26 26h4v38h-4z"/><path fill="#42ADE2" d="M31 30.002h19v6H31z"/><path fill="#FC97B2" d="M31 36.002h19v6H31z"/><path fill="#42ADE2" d="M14 30.002h11v6H14z"/><path fill="#FC97B2" d="M14 36.002h11v6H14z"/><path fill="#42ADE2" d="M31 42.002h19v6H31z"/><path fill="#699635" d="M26 48h4v2h-4zm-1-13h6v2h-6zm0 6h6v2h-6z"/><path fill="#42ADE2" d="M28 0c-7.732 0-14 6.268-14 14 0 3.866 1.567 7.366 4.101 9.9l9.899 1 9.901-1v.001a13.96 13.96 0 0 0 4.1-9.9C42 6.268 35.732 0 28 0z"/><path fill="#FF717F" d="M37.9 23.9l-2.828-2.828c-3.901 3.898-10.245 3.898-14.143 0L18.101 23.9A13.92 13.92 0 0 0 26 27.842v2.16h4v-2.16a13.922 13.922 0 0 0 7.9-3.942z"/><path fill="#FFF" d="M34 15c0 1.1-.9 2-2 2h-8c-1.1 0-2-.9-2-2V7c0-1.1.9-2 2-2h8c1.1 0 2 .9 2 2v8z"/><path fill="#42ADE2" d="M32 10c0 .55-.449 1-1 1h-6c-.549 0-1-.45-1-1V8c0-.55.451-1 1-1h6c.551 0 1 .45 1 1v2z"/><circle fill="#42ADE2" cx="25" cy="14" r="1"/><circle fill="#42ADE2" cx="31" cy="14" r="1"/><path fill="#FFF" d="M31 16v3c0 .55.451 1 1 1 .551 0 1-.45 1-1v-3h-2zm-8 0v3c0 .55.451 1 1 1 .551 0 1-.45 1-1v-3h-2z"/><path fill="#699635" d="M25 42.002h6v6h-6zm0-6h6v6h-6zm0-6h6v6h-6z"/><path fill="#83BF4F" d="M27 30h2v5h-2zm0 7h2v4h-2zm0 6h2v5h-2z"/><path fill="#FFF" d="M15.941 31.562h1.625v2.964h-1.625zm3.574 0h3.313v2.964h-3.313zm-3.574 5.939h3.313V40.5h-3.313zm5.23.001h1.656V40.5h-1.656zm21.399-5.971h6.158v1H42.57zm-7.367 0h6.158v1h-6.158zm3.43 1.994h10.096v1H38.633zm-1.219 9.979h11.314v1H37.414zm7.613 1.994h3.701v1h-3.701zm-11.773 0h10.598v1H33.254zm8.244-7.995h7.23v1h-7.23zm-8.571 0h7.231v1h-7.231zm12.034 1.995h3.768v1h-3.768zm-4.846 0h3.77v1h-3.77zm-4.652 0h3.77v1h-3.77z"/></svg>