<svg xmlns="http://www.w3.org/2000/svg" width="64" height="64" viewBox="0 0 64 64"><path fill="#89664C" d="M2.999 29.002V61h58V29.002c0-38.969-58-38.368-58 0z"/><path fill="#594640" d="M7.244 31.237V61h49.51V31.237c0-36.246-49.51-35.688-49.51 0z"/><path fill="#A37D64" d="M8.036 31.653V61h47.927V31.653c0-35.739-47.927-35.189-47.927 0z"/><path fill="#94989B" d="M-.001 61h64v3h-64z"/><path d="M35.244 30.483h16.641c-.648-12.065-8.293-18.62-16.641-19.765v19.765zm-5.574 0V10.75c-8.342 1.239-15.981 7.855-16.638 19.733H29.67zm5.574 5.573h16.689v19.948H35.244zm-22.264 0h16.689v19.948H12.98z" fill="#594640"/><path d="M34.785 30.149h16.641c-.647-12.065-8.293-18.62-16.641-19.765v19.765zm-5.572 0V10.416c-8.342 1.239-15.982 7.855-16.639 19.733h16.639zm5.572 5.574h16.69V55.67h-16.69zm-22.263 0h16.69V55.67h-16.69z" fill="#89664C"/><path fill="#FFCE31" d="M47.457 28.861h7v14h-7z"/><path fill="#F2B200" d="M47.957 29.361h6v13h-6z"/><path fill="#3E4347" d="M51.967 41.203l-.418-2.672a1 1 0 1 0-1.182 0l-.418 2.672h2.018z"/><circle fill="#B78300" cx="50.958" cy="33.019" r="2.873"/><path fill="#FFD664" d="M53.83 32.511a2.873 2.873 0 1 1-2.87-2.875 2.872 2.872 0 0 1 2.87 2.875z"/></svg>