<svg xmlns="http://www.w3.org/2000/svg" width="64" height="64" viewBox="0 0 64 64"><circle fill="#4FD1D9" cx="32" cy="32" r="30"/><path fill="#FFF" d="M34.262 22.973c0 4.764 9.555 4.764 9.555 0v-4.75h-9.555l-3.801 2.85h3.801v1.9zm9.554-5.702v-3.8H33.311l.951 3.8zm-19.177 8.338L14.32 23.424v9.835l10.319 2.185zm0-6.555L14.32 21.238l10.319 2.186z"/><path d="M30.893 43.084l14.39-14.41H30.881L24.23 40.646l-1.9-3.419h-5.701l4.75 8.55h5.701l3.813-6.86zm1.677.721h15.114V28.674zm-1.677 1.68h16.791v5.044H30.893z" fill="#FFF"/></svg>