<svg xmlns="http://www.w3.org/2000/svg" width="64" height="64" viewBox="0 0 64 64"><path fill="#C7E755" d="M0 22.167s1.88-5.412 4.645-7.064c6.417-3.834 3.813 10.27 13.479 5.02 3.783-2.055 4.708 4.616 6.886 5.123 4.745 1.104 17.321.551 17.321.551s2.357-3.896 4.67-4.314c4.25-.767 3.498-6.038 6.893-7.572 2.338-1.056 4.25 1.304 7.313.077C62.536 13.455 63.999 10 63.999 10v18.384L0 29.876v-7.709z"/><path fill="#666" d="M36.999 24.739H27L0 54.186V64h63.999v-9.814z"/><path d="M26.336 27.717h11.327v.317H26.336zm1.061-1.33h9.205v.253h-9.205zm.912-1.141h7.382v.253h-7.382zm-5.091 6.372h17.564v.498H23.218zm1.792-2.239h13.979v.497H25.01z" fill="#594640"/><path d="M36.603 26.387l-.518-.634h-8.17l-.518.634zm1.06 1.33l-.658-.823h-10.01l-.659.823zm-1.973-2.471l-.406-.507h-6.568l-.407.507zm5.092 6.372l-1-1.243H24.217l-.999 1.243zm-1.793-2.239l-.797-.994H25.807l-.797.994z" fill="#DBB471"/><path d="M15.312 41.511h33.377v.934H15.312zm3.125-3.919h27.127v.746H18.437zm2.687-3.362h21.752v.748H21.124zM0 60.702h63.999v1.833H0zm6.124-7.696h51.752v1.465H6.124zm5.281-6.598h41.189v1.467H11.405z" fill="#594640"/><path d="M45.563 37.592l-1.529-1.867H19.965l-1.528 1.867zm3.125 3.919l-1.945-2.427H17.257l-1.945 2.427zm-5.812-7.281l-1.199-1.492H22.323l-1.199 1.492zm15 18.776l-2.945-3.666H9.069l-2.945 3.666zm2.32 2.932H3.804L0 60.702h63.999zm-7.601-9.53l-2.346-2.931H13.751l-2.346 2.931z" fill="#DBB471"/><path fill="#666" d="M11.031 64l19.116-39.261h-.148L11.031 61.068z"/><path fill="#3E4347" d="M7.031 61.068h4.031V64H7.031z"/><path fill="#E6E6E6" d="M29.604 24.739L7 61.068h4.031l18.968-36.329z"/><path fill="#666" d="M52.968 64L33.851 24.739h.148l18.969 36.329z"/><path fill="#E6E6E6" d="M34.396 24.739l22.603 36.329h-4.031L33.999 24.739z"/><path fill="#3E4347" d="M52.937 61.068h4.031V64h-4.031z"/><path fill="#83BF4F" d="M27 24.739s-4.747-1.776-6.73-.782c-3.188 1.599-2.788-3.506-5.411-4.635-2.787-1.2-6.089 3.255-8.827 2.948C2.622 21.888 0 16.033 0 16.033v38.153l27-29.447zm9.999 0s3.883-.641 4.957-1.855c.953-1.076 2.834-4.171 4.906-4.332 2.564-.198 5.416 2.838 6.949 2.876 1.592.038 1.094-4.545 5.145-5.395 3.166-.665 5.043 3.476 5.043 3.476v34.677l-27-29.447z"/></svg>