<svg xmlns="http://www.w3.org/2000/svg" width="64" height="64" viewBox="0 0 64 64"><path d="M20.519 59.717l7.027-7.2a20.87 20.87 0 0 1-6.904-2.87l-.123 10.07zM43.48 4.284l-7.025 7.199a20.872 20.872 0 0 1 6.904 2.871l.121-10.07zM4.283 43.479l10.07-.122a20.85 20.85 0 0 1-2.869-6.903l-7.201 7.025zM59.715 20.52l-10.07.123a20.88 20.88 0 0 1 2.871 6.904l7.199-7.027zm-55.431-.001l7.2 7.027a20.849 20.849 0 0 1 2.87-6.904l-10.07-.123zM59.715 43.48l-7.199-7.026a20.88 20.88 0 0 1-2.871 6.904l10.07.122zM20.52 4.283l.122 10.07a20.858 20.858 0 0 1 6.904-2.87l-7.026-7.2zm22.96 55.433l-.123-10.069a20.87 20.87 0 0 1-6.904 2.87l7.027 7.199z" fill="#FFE62E"/><path d="M14.752 43.962l-3.966 9.251 9.251-3.965a21.104 21.104 0 0 1-5.285-5.286zm34.496-23.923l3.965-9.252-9.25 3.965a21.14 21.14 0 0 1 5.285 5.287zm-37.896 8.22L2 31.999l9.352 3.74C11.133 34.524 11 33.278 11 32s.133-2.524.352-3.741zm41.294 7.482L62 32l-9.354-3.741c.219 1.217.352 2.463.352 3.741 0 1.279-.133 2.525-.352 3.741zm-32.607-20.99l-9.251-3.965 3.965 9.252a21.095 21.095 0 0 1 5.286-5.287zm23.922 34.497l9.252 3.965-3.965-9.251a21.128 21.128 0 0 1-5.287 5.286zM35.74 11.352L32 2l-3.741 9.352A21.057 21.057 0 0 1 32 11c1.279 0 2.525.133 3.74.352zm-7.481 41.296L32 62l3.74-9.352A21.037 21.037 0 0 1 32 53c-1.279 0-2.525-.133-3.741-.352z" fill="#FFCE31"/><circle fill="#FFCE31" cx="31.999" cy="32" r="18.999"/></svg>