<svg xmlns="http://www.w3.org/2000/svg" width="64" height="64" viewBox="0 0 64 64"><path fill="#62BBC7" d="M25.453 8.314L4.851 48.433v10.715h10.715z"/><path fill="#62BBC7" d="M55.686 38.547L4.851 48.433v10.715h10.715z"/><path fill="#6DD1DE" d="M39.74 8.314L4.851 48.433v10.715h10.715z"/><path fill="#6DD1DE" d="M55.686 24.26l-40.12 34.888H4.851V48.433z"/><path fill="#7DF0FF" d="M62 2L4.851 48.433v10.715h10.715z"/><path fill="#C2F8FF" d="M33.426 30.574L4.851 48.433v10.715h10.715z"/><circle fill="#7DF0FF" cx="9.578" cy="54.422" r="7.577"/><circle fill="#5995C1" cx="9.577" cy="54.422" r="6.695"/><circle fill="#4B7EA3" cx="9.405" cy="49.943" r="1.477"/><circle fill="#5995C1" cx="9.326" cy="49.591" r="1.223"/><circle fill="#4B7EA3" cx="14.152" cy="52.705" r=".972"/><circle fill="#5995C1" cx="14.101" cy="52.474" r=".805"/><circle fill="#4B7EA3" cx="11.736" cy="58.846" r="1.454"/><circle fill="#5995C1" cx="11.658" cy="58.499" r="1.202"/><circle fill="#4B7EA3" cx="4.68" cy="52.903" r=".971"/><circle fill="#5995C1" cx="4.627" cy="52.672" r=".805"/><circle fill="#4B7EA3" cx="7.858" cy="56.248" r="2.461"/><circle fill="#5995C1" cx="7.726" cy="55.661" r="2.036"/><path fill="#C2F8FF" d="M10.836 32.597l2.022-2.022 2.022 2.022-2.022 2.022zm18.544-8.334l2.021-2.023 2.024 2.021-2.022 2.023zm-1.427-11.339l2.022-2.023 2.023 2.022-2.022 2.023zm22.334 7.198L52.31 18.1l2.022 2.023-2.022 2.022zm-6.168 16.824l2.022-2.023 2.023 2.023-2.022 2.023zM20.162 29.96l1-1 1 1-1 1zm-2.024-5.7l1-1 1 1-1 1zm16.753 14.287l1-1 1 1-1 1zm-3.887 8.823l1-1 1 1-1.001 1zm9.333-4.068l1-1 1 1.001-1.001 1zm5.81-18.418l1-1 1 1-1 1zm7.186 5.077l1-1 1 1-1 1zm-11-18.958l1-1 1 1-1 1zm2.812-7.375l1-1 1 1-1 1zM33.89 8.315l1-1 .999 1-1 1z"/></svg>