<svg xmlns="http://www.w3.org/2000/svg" width="64" height="64" viewBox="0 0 64 64"><path fill="#3DD0E0" d="M0 50h64v14H0z"/><path d="M4.279 54.351c1.658-.281 3.125.771 4.818.031 1.879-.777 3.217.319 5.013.623-1.659.284-3.126-.771-4.819-.031-1.881.771-3.215-.32-5.012-.623.418-.072.418.071 0 0zm45.61 3.48c1.66-.281 3.127.771 4.82.03 1.877-.776 3.217.32 5.012.623-1.659.285-3.127-.77-4.82-.03-1.88.772-3.214-.319-5.012-.623.418-.071.419.07 0 0zm-35.305.462c1.615-.295 2.913.396 4.476.565 1.802.195 3.235-.318 4.934-.838 3.106-.948 5.372.911 8.296 1.449-1.616.301-2.914-.395-4.477-.563-1.801-.193-3.235.313-4.933.833-3.109.953-5.37-.912-8.296-1.446.752-.138.754.141 0 0zM37.96 54.21c2.443-.29 4.458 1.248 6.943.172 2.65-1.103 4.577.461 7.136.762-2.443.294-4.459-1.242-6.943-.17-2.655 1.097-4.575-.464-7.136-.764.599-.07.599.07 0 0z" fill="#B4E7ED"/><path fill="#428BC1" d="M61.895 52H5.245L0 42h64z"/><path fill="#B9C1C6" d="M61 32H13.113L7 42h54z"/><path fill="#3E4347" d="M52.978 34h6v6h-6zm-8.001 0h6v6h-6zm-8.001 0h6v6h-6zm-8.001 0h6v6h-6zm-8.001 0h6v6h-6zm-2.001 6h-7l3-6h4z"/><path fill="#DCE1E5" d="M10 26h54v6H10zm2-14h38v4H12z"/><path fill="#B9C1C6" d="M14 16h34v10H14z"/><path d="M2 38h1v4H2zm3 0h1v4H5zm3 0h1v4H8zm3 0h1v4h-1zm3 0h1v4h-1zm3 0h1v4h-1z" fill="#778389"/><path fill="#8F989E" d="M0 37.001h18.002v1H0z"/><path d="M61 21.999h1v4h-1zm-3 0h1v4h-1zm-3 0h1v4h-1zm-3 0h1v4h-1zm-3 0h1v4h-1zm-3 0h1v4h-1z" fill="#778389"/><path fill="#8F989E" d="M45.998 21H64v1H45.998z"/><path d="M52.998 38h1v4h-1zm3 0h1v4h-1zm3 0h1v4h-1zm3 0h1v4h-1z" fill="#778389"/><path fill="#8F989E" d="M52.998 37.001H64v1H52.998z"/><path fill="#3E4347" d="M16 18h6v6h-6zm8 0h6v6h-6zm8 0h6v6h-6zm8 0h6v6h-6z"/><path fill="#8F989E" d="M40 4h2v8h-2zm4 2h2v6h-2z"/></svg>